<?xml version="1.0" encoding="utf-8"?>
<!-- Generator: Adobe Illustrator 16.0.4, SVG Export Plug-In . SVG Version: 6.00 Build 0)  -->
<!DOCTYPE svg PUBLIC "-//W3C//DTD SVG 1.1//EN" "http://www.w3.org/Graphics/SVG/1.1/DTD/svg11.dtd">
<svg version="1.1" id="Layer_1" xmlns="http://www.w3.org/2000/svg" xmlns:xlink="http://www.w3.org/1999/xlink" x="0px" y="0px"
	 width="612px" height="792px" viewBox="150 230 312 352" enable-background="new 0 0 612 792" xml:space="preserve">
<g>
	<g>
		<path fill="#002F87" d="M156.357,467.755h36.06v-186.46h-36.06v-46.123h116.012v46.123h-27.521v74.714h92.87v-74.714h-27.524
			v-46.123h115.999v46.123h-36.044v186.46h36.044v46.029H310.194v-46.029h27.524v-78.074h-92.87v78.074h27.521v46.029H156.357
			V467.755z"/>
		<path fill="#002F87" d="M157.693,294.499h27.245v31.609L157.693,294.499z M254.965,294.499h27.811v-60.542l19.75,25.672v66.479
			h-27.523v14.513h-20.038V294.499z M311.605,294.499h18.729v26.198L311.605,294.499z M254.965,402.98h75.37v31.948h-55.332v17.006
			h-20.038V402.98z M282.776,526.989v-60.64l19.75,22.176v70.076h-116.28l-28.553-31.612H282.776z M436.414,526.989v-60.64
			l19.943,24.235v68.017H336.231l-24.626-31.612H436.414z M400.647,294.499h35.767v-60.542l19.943,29.026v63.125h-36.053v125.827
			h-19.657V294.499z"/>
	</g>
</g>
</svg>
