<?xml version="1.0" encoding="utf-8"?>
<!-- Generator: Adobe Illustrator 16.0.4, SVG Export Plug-In . SVG Version: 6.00 Build 0)  -->
<!DOCTYPE svg PUBLIC "-//W3C//DTD SVG 1.1//EN" "http://www.w3.org/Graphics/SVG/1.1/DTD/svg11.dtd" [
	<!ENTITY ns_flows "http://ns.adobe.com/Flows/1.0/">
	<!ENTITY ns_extend "http://ns.adobe.com/Extensibility/1.0/">
	<!ENTITY ns_ai "http://ns.adobe.com/AdobeIllustrator/10.0/">
	<!ENTITY ns_graphs "http://ns.adobe.com/Graphs/1.0/">
]>
<svg version="1.1" id="Layer_1" xmlns:x="&ns_extend;" xmlns:i="&ns_ai;" xmlns:graph="&ns_graphs;"
	 xmlns="http://www.w3.org/2000/svg" xmlns:xlink="http://www.w3.org/1999/xlink" xmlns:a="http://ns.adobe.com/AdobeSVGViewerExtensions/3.0/"
	 x="0px" y="0px" viewBox="20 100 572 592" enable-background="new 0 0 612 792" xml:space="preserve">
<g>
	<path d="M167.855,213.901c10.175,0,18.435-8.248,18.435-18.423V125.42c0-10.172-8.26-18.42-18.435-18.42
		c-10.175,0-18.406,8.248-18.406,18.42v70.064C149.449,205.653,157.68,213.901,167.855,213.901z"/>
	<path d="M444.109,213.901c10.175,0,18.453-8.248,18.453-18.423V125.42c0.006-10.172-8.278-18.42-18.453-18.42
		c-10.146,0-18.405,8.248-18.405,18.42v70.064C425.704,205.653,433.963,213.901,444.109,213.901z"/>
	<path d="M476.365,167.896v27.588c0,17.773-14.447,32.237-32.256,32.237c-17.762,0-32.196-14.458-32.196-32.237v-27.588H200.105
		v27.588c0,17.773-14.465,32.237-32.25,32.237c-17.773,0-32.22-14.458-32.22-32.237v-27.588H76.92v124.319h458.164V167.896H476.365z
		"/>
</g>
<rect x="75.597" y="308.597" width="460.789" height="305.287"/>
<rect x="76.92" y="632.939" width="458.164" height="16.676"/>
<rect x="76.92" y="666.325" width="458.164" height="16.675"/>
<g id="cap">
	<path fill="#FFFFFF" d="M307.941,555.962l89.147-62.696v63.711c0,0-67.497-14.624-88.821,27.87c0,0-31.985-47.799-88.82-29.887
		v-61.044L307.941,555.962z M173.133,491.951c0-6.883-4.075-12.623-9.716-14.758l-0.121-25.609l143.798,79.557l177.651-97.146
		l-177.645-97.147l-179.104,95.254l19.24,10.636l7.133,3.941l0.165,30.427c-5.821,2.009-10.075,7.839-10.075,14.847
		c0,6.009,3.163,11.879,7.735,14.489c-3.192,8.525-10.435,32.744-10.131,52.503h33.832c0.31-24.667-7.21-44.582-10.305-52.633
		C170.077,503.679,173.133,497.851,173.133,491.951z"/>
</g>
</svg>
