<svg xmlns="http://www.w3.org/2000/svg" xmlns:xlink="http://www.w3.org/1999/xlink" version="1.1" x="0px" y="0px" viewBox="0 0 100 100" enable-background="new 0 0 100 100" xml:space="preserve"><g><g><path d="M26.017,18.559c1.766,0,3.199-1.431,3.199-3.197V3.197C29.216,1.431,27.783,0,26.017,0c-1.766,0-3.197,1.431-3.197,3.197    v12.166C22.82,17.128,24.251,18.559,26.017,18.559z"></path><path d="M73.98,18.559c1.766,0,3.199-1.431,3.199-3.197V3.197C77.18,1.431,75.746,0,73.98,0s-3.197,1.431-3.197,3.197v12.166    C70.783,17.128,72.215,18.559,73.98,18.559z"></path><path d="M79.578,10.572v4.791c0,3.085-2.51,5.595-5.598,5.595c-3.086,0-5.594-2.509-5.594-5.595v-4.791H31.615v4.791    c0,3.085-2.511,5.595-5.598,5.595c-3.085,0-5.595-2.509-5.595-5.595v-4.791H10.23v21.584h79.54V10.572H79.578z"></path></g><path d="M10,35v53h80V35H10z M29,80H19V70h10V80z M29,67H19V57h10V67z M29,54H19V44h10V54z M42,80H32V70h10V80z M42,67H32V57h10V67   z M42,54H32V44h10V54z M55,80H45V70h10V80z M55,67H45V57h10V67z M55,54H45V44h10V54z M68,80H58V70h10V80z M68,67H58V57h10V67z    M68,54H58V44h10V54z M81,80H71V70h10V80z M81,67H71V57h10V67z M81,54H71V44h10V54z"></path><rect x="10.23" y="91.309" width="79.54" height="2.897"></rect><rect x="10.23" y="97.103" width="79.54" height="2.897"></rect></g></svg>
