<?xml version="1.0" standalone="no"?>
<!DOCTYPE svg PUBLIC "-//W3C//DTD SVG 20010904//EN"
 "http://www.w3.org/TR/2001/REC-SVG-20010904/DTD/svg10.dtd">
<svg version="1.0" xmlns="http://www.w3.org/2000/svg"
 width="160.000000pt" height="180.000000pt" viewBox="0 0 160.000000 180.000000"
 preserveAspectRatio="xMidYMid meet">
<metadata>
Created by potrace 1.10, written by Peter Selinger 2001-2011
</metadata>
<g transform="translate(0.000000,180.000000) scale(0.050000,-0.050000)"
fill="#000000" stroke="none">
<path d="M1220 3515 l-1 -65 -39 50 c-51 65 -51 39 0 -60 34 -67 40 -118 40
-339 l0 -261 -57 0 c-64 0 -457 -95 -503 -122 -70 -40 122 -15 320 42 115 33
217 60 225 60 8 0 15 -97 15 -216 l0 -216 -65 -19 c-168 -50 -205 -389 -42
-389 53 0 29 -83 -31 -105 -43 -17 -57 -34 -56 -73 6 -197 0 -214 -98 -252
-205 -78 -410 -355 -487 -657 -20 -78 -46 -145 -59 -149 -30 -10 -28 -64 3
-65 14 -1 6 -9 -18 -19 -30 -12 -47 -42 -57 -97 -12 -75 -18 -81 -97 -93 -128
-20 -151 -30 -174 -73 -35 -63 20 -123 149 -164 l112 -35 0 -103 c0 -97 2
-100 32 -64 27 33 30 34 20 4 -6 -19 -2 -35 9 -35 10 0 19 21 19 46 0 44 11
48 205 71 269 31 273 30 270 -16 -3 -30 -15 -36 -54 -29 -28 5 -109 1 -181 -9
-105 -15 -115 -18 -50 -21 44 -1 103 -7 130 -13 34 -6 39 -5 16 6 -19 8 201
12 490 8 288 -4 527 -15 531 -25 8 -22 144 -25 141 -3 -7 49 29 100 64 90 20
-5 33 -18 27 -27 -6 -10 11 -18 38 -18 27 0 54 -13 60 -30 30 -78 133 -35 133
56 l0 86 133 39 c221 65 245 203 42 243 -79 16 -87 24 -122 119 l-36 102 -184
34 c-248 46 -253 48 -253 94 0 28 9 38 30 30 16 -6 75 -18 131 -25 57 -8 107
-25 112 -39 15 -40 127 -74 127 -40 0 15 -9 31 -20 34 -11 4 -33 61 -50 127
-83 325 -312 615 -540 681 -109 31 -110 33 -110 109 0 43 -11 81 -25 86 -20 7
-20 17 0 51 21 36 20 43 -3 43 -44 0 -127 80 -96 93 176 73 153 376 -32 416
l-54 12 0 194 c0 121 9 204 23 220 13 13 28 36 33 50 7 17 19 13 41 -15 17
-22 32 -32 32 -23 1 10 16 6 34 -10 31 -25 31 -23 6 17 -15 24 -34 39 -43 34
-9 -6 -16 1 -16 16 0 18 34 27 111 29 76 1 124 14 155 40 44 37 44 37 9 -5
-41 -49 -45 -71 -9 -57 14 5 56 -22 94 -61 37 -38 59 -70 48 -70 -11 0 -46 27
-77 59 -31 33 -62 58 -69 58 -7 -1 -16 0 -22 3 -5 2 -35 6 -66 9 l-56 5 62
-64 c47 -48 78 -64 121 -60 36 3 53 -3 46 -16 -7 -11 -3 -14 9 -7 11 8 27 4
35 -9 10 -16 18 -16 28 0 9 15 31 3 62 -33 35 -39 37 -45 7 -20 -50 42 -82 46
-49 7 35 -43 -27 -29 -78 17 -23 21 -41 30 -41 22 0 -9 -13 -5 -30 9 -17 14
-30 16 -30 5 0 -29 51 -67 68 -50 8 7 8 -1 1 -20 -11 -30 10 -33 227 -32 385
3 506 29 640 136 41 32 106 67 144 77 l70 19 -52 21 c-299 120 -1060 184
-1125 94 -27 -37 -103 -63 -82 -28 7 10 20 14 29 8 9 -6 24 0 31 12 25 40
-169 0 -249 -51 l-72 -45 7 271 c4 192 14 283 35 311 45 65 34 111 -12 52
l-40 -50 13 65 c8 42 4 65 -10 65 -13 0 -23 -29 -23 -65z m550 -577 c-7 -36
-4 -38 25 -15 28 23 30 23 16 -1 -12 -19 -10 -24 6 -14 13 8 23 5 23 -7 0 -11
-10 -21 -21 -21 -12 0 -16 -8 -10 -19 19 -30 -23 -43 -47 -13 -18 21 -19 74
-3 127 7 26 17 -5 11 -37z m157 18 c-5 -9 0 -16 11 -16 11 0 25 9 32 20 7 11
28 20 46 19 25 0 20 -8 -16 -29 -27 -15 -64 -24 -82 -19 -19 6 -31 -2 -31 -20
0 -39 95 -33 127 8 20 27 23 26 20 -7 -3 -31 10 -39 69 -41 41 -1 70 4 65 12
-5 8 1 20 12 27 12 7 19 1 15 -13 -3 -19 17 -25 73 -22 43 2 92 -7 109 -20 25
-20 28 -20 14 2 -13 22 -8 23 25 5 53 -28 70 -28 53 0 -8 12 12 6 44 -14 31
-20 60 -38 63 -39 3 -2 -9 -10 -26 -16 -21 -8 -27 -5 -18 10 8 13 3 18 -14 12
-15 -5 -26 -20 -23 -33 3 -13 -8 -28 -25 -35 -16 -6 -26 -18 -21 -26 11 -18
-63 -13 -82 5 -29 30 -50 12 -25 -21 26 -33 25 -33 -14 0 -50 43 -82 46 -48 5
30 -36 36 -33 -100 -37 -60 -2 -120 -10 -133 -18 -12 -8 -34 -1 -48 16 -43 52
-95 72 -111 44 -8 -14 -7 -18 2 -10 21 19 73 -24 58 -48 -12 -20 -238 168
-268 223 -14 25 -11 43 10 60 23 19 27 16 21 -16 -5 -26 22 -67 85 -126 51
-49 73 -64 47 -35 -69 79 -14 96 65 19 61 -59 65 -60 102 -27 36 34 37 33 9
-4 -24 -32 -24 -36 -1 -22 20 12 24 10 12 -9 -11 -18 -8 -21 10 -10 16 10 21
8 14 -4 -7 -10 1 -19 17 -19 24 0 23 6 -4 36 -18 21 -23 37 -11 37 12 0 27 -9
34 -20 7 -12 23 -15 34 -7 13 8 16 4 8 -10 -9 -14 -4 -19 14 -12 15 6 27 23
27 39 0 16 -9 23 -21 16 -13 -7 -15 -5 -5 6 18 20 154 26 142 7 -4 -7 4 -13
17 -15 13 -1 48 -6 78 -10 29 -5 65 -1 80 9 21 13 20 17 -4 17 -27 1 -27 3 0
20 20 13 22 19 5 20 -38 0 -56 -8 -50 -25 7 -22 -31 -18 -45 5 -24 39 -87 61
-102 37 -10 -16 -5 -18 14 -7 15 9 21 9 13 -1 -22 -24 -96 -26 -81 -2 7 10 2
13 -11 5 -13 -8 -34 -8 -47 1 -46 28 -138 23 -113 -7 35 -42 -6 -30 -62 19
-48 42 -48 42 -15 2 22 -26 29 -48 17 -55 -11 -7 -26 -3 -33 8 -7 11 -20 16
-29 11 -23 -15 -68 44 -72 96 -5 57 1 64 48 64 22 0 36 -7 30 -15z m-327 -117
c6 -2 16 -3 23 -2 7 1 27 -15 45 -35 50 -55 -55 -44 -111 12 -41 42 -24 51 43
25z m552 -25 c8 -7 -1 -19 -19 -26 -18 -7 -27 -22 -20 -35 8 -14 3 -14 -14 2
-41 38 -39 78 3 75 20 -1 43 -8 50 -16z m-836 -597 c8 -87 -42 -136 -145 -142
-78 -5 -155 58 -96 79 14 5 20 18 14 28 -24 39 16 98 77 115 96 25 143 1 150
-80z m-5 -477 c8 -82 23 -140 37 -140 125 0 330 -360 389 -685 l18 -95 -460 0
c-331 0 -513 -9 -649 -32 -226 -39 -216 -46 -164 124 98 320 208 441 395 434
124 -5 154 21 43 36 l-90 12 84 3 c72 3 151 43 83 43 -13 0 -7 13 14 29 38 29
37 30 -11 32 -53 2 -44 8 45 28 58 12 77 71 24 71 -82 0 -22 107 76 138 52 16
95 36 95 46 0 21 -47 21 -71 -2 -45 -42 -109 -46 -109 -7 0 44 103 102 184
104 52 1 54 -3 67 -139z m589 -665 c54 -112 53 -154 -5 -140 -61 16 -71 36
-72 149 -1 112 20 110 77 -9z m-150 -295 c8 -13 -137 -19 -424 -17 -485 4
-413 28 98 34 191 2 318 -5 326 -17z m-870 -108 c0 -75 4 -73 -200 -103 -49
-8 -95 -21 -100 -30 -18 -28 -220 -47 -220 -22 0 13 27 23 60 23 33 0 60 8 60
17 0 10 -22 13 -50 8 -36 -7 -50 -1 -50 21 0 37 12 41 266 85 108 19 192 38
187 42 -7 8 -153 -11 -353 -45 -38 -6 -64 -5 -56 2 15 15 308 65 401 68 50 2
55 -5 55 -66z m780 0 c0 -58 -35 -63 -455 -69 l-285 -4 0 60 0 61 370 0 370 0
0 -48z m442 -170 c297 -76 340 -93 325 -131 -6 -17 -32 -31 -57 -31 -79 0
-170 24 -158 43 22 36 -47 70 -212 106 -93 20 -183 41 -198 47 -18 7 -23 2
-14 -13 11 -17 -60 -23 -278 -23 -190 0 -288 -7 -280 -20 8 -13 -48 -20 -154
-20 -91 0 -334 -24 -540 -53 -357 -50 -436 -52 -436 -9 0 22 217 72 235 54 6
-6 23 -2 38 10 15 13 41 17 59 10 46 -18 230 9 216 31 -6 10 26 13 76 6 68
-10 80 -7 56 11 -24 19 -15 21 45 13 41 -6 75 -2 75 8 0 19 608 37 842 26 73
-4 235 -33 360 -65z m-382 -81 c152 -21 131 -22 -380 -22 -382 0 -491 -7 -720
-47 -297 -52 -282 -69 20 -22 242 37 240 37 240 -10 0 -22 -13 -40 -30 -40
-16 0 -30 9 -30 20 0 11 -13 20 -30 20 -16 0 -30 -13 -30 -30 0 -16 -13 -30
-30 -30 -16 0 -30 9 -30 20 0 11 -13 20 -30 20 -16 0 -30 -15 -30 -33 0 -27
16 -30 101 -19 99 13 164 0 123 -25 -11 -7 181 -10 428 -6 340 5 448 0 448
-18 0 -18 -129 -22 -545 -16 -300 5 -518 2 -485 -6 35 -8 5 -10 -70 -6 -91 6
-115 3 -80 -9 42 -15 33 -19 -55 -23 -145 -6 -144 -5 -167 -39 -19 -27 -20
-27 -10 0 7 17 18 46 24 65 7 20 33 35 60 35 51 0 64 28 24 52 -13 8 -27 4
-31 -8 -11 -31 -40 -31 -51 1 -4 14 -6 9 -3 -10 3 -19 -4 -40 -14 -47 -12 -7
-17 18 -13 63 3 41 19 82 36 90 117 59 1097 116 1360 80z m69 -60 c6 -10 -7
-24 -29 -31 -48 -15 -54 -50 -8 -50 17 0 28 -10 24 -22 -7 -21 -833 -28 -855
-6 -5 6 3 18 18 28 23 14 24 23 3 48 -23 28 3 31 241 36 147 3 341 8 431 11
90 2 169 -4 175 -14z m276 -12 c76 -14 105 -49 40 -49 -94 1 -185 27 -185 54
0 18 13 25 35 18 19 -5 69 -16 110 -23z m-245 -178 c0 -15 -13 -32 -30 -38
-16 -7 -30 -26 -30 -43 0 -59 -868 -34 -876 25 l-7 45 439 0 c380 0 441 4 452
31 13 36 52 21 52 -20z m246 20 c80 -18 57 -63 -28 -54 -75 8 -124 38 -106 66
6 10 26 15 45 10 18 -5 58 -15 89 -22z"/>
<path d="M2209 2764 c-36 -25 -20 -71 26 -74 37 -3 40 2 20 26 -14 17 -22 34
-18 39 12 16 -8 23 -28 9z"/>
<path d="M1160 1630 c0 -20 20 -30 60 -30 64 0 81 28 28 48 -53 20 -88 13 -88
-18z"/>
<path d="M1080 1480 c0 -23 88 -23 160 0 39 13 28 16 -55 18 -58 1 -105 -7
-105 -18z"/>
<path d="M1117 1424 c-51 -4 -76 -17 -82 -43 -12 -43 88 -62 303 -59 161 3 82
31 -108 38 l-120 4 79 25 c90 27 53 45 -72 35z"/>
<path d="M1231 1281 c22 -9 52 -31 67 -49 17 -20 58 -32 108 -32 76 0 79 2 43
29 -22 17 -59 30 -84 30 -25 1 -45 10 -45 21 0 11 -29 19 -65 19 -54 -1 -58
-4 -24 -18z"/>
<path d="M1408 1130 c27 -29 67 -49 94 -48 42 2 40 5 -12 18 l-60 15 70 3 70
2 -57 30 c-32 17 -79 30 -104 30 l-47 0 46 -50z"/>
<path d="M1468 1028 c7 -17 12 -35 12 -40 0 -4 14 -8 31 -8 17 0 26 8 20 19
-7 10 4 28 24 39 29 17 24 21 -32 21 -53 1 -65 -6 -55 -31z"/>
<path d="M904 905 l6 -55 359 -5 c225 -4 366 2 379 15 22 22 12 23 -423 20
-274 -2 -285 0 -285 39 0 23 -10 41 -21 41 -12 0 -19 -25 -15 -55z"/>
<path d="M1431 2861 c-6 -10 7 -31 30 -48 23 -16 35 -33 25 -37 -15 -8 -60 -6
-71 3 -22 18 -73 13 -64 -6 7 -13 -1 -7 -17 13 -24 29 -31 30 -40 6 -22 -57
182 -153 325 -152 47 1 44 8 -59 105 -60 58 -107 112 -105 120 7 21 -10 19
-24 -4z m128 -130 c32 -34 36 -47 15 -44 -43 7 -96 54 -83 75 15 25 16 24 68
-31z"/>
</g>
</svg>
