<svg xmlns="http://www.w3.org/2000/svg" xmlns:xlink="http://www.w3.org/1999/xlink" version="1.1" x="0px" y="0px" viewBox="0 0 100 100" style="enable-background:new 0 0 100 100;" xml:space="preserve"><path d="M50.001,0C22.387,0,0,22.383,0,50c0,27.611,22.387,50,50.001,50C77.614,100,100,77.611,100,50C100,22.383,77.614,0,50.001,0  z M46.12,45.163c0,0-2.691,0.885-2.691,6.546L43.9,84.255c0,2.034-1.647,3.675-3.678,3.675c-2.029,0-3.673-1.641-3.673-3.675  l0.505-32.546c0-5.661-2.725-6.546-2.725-6.546l0.02-0.014c-2.81-1.133-3.659-4.318-3.659-8.095l0.97-19.308h3.513v15.987  c0,0.861,0.703,1.564,1.572,1.564c0.862,0,1.562-0.703,1.562-1.564V17.747h3.864v15.987c0,0.861,0.703,1.564,1.565,1.564  c0.866,0,1.569-0.703,1.569-1.564V17.747h3.672l0.781,19.308c0,3.776-0.853,6.962-3.656,8.095L46.12,45.163z M59.05,87.93  c-6.575,0-10.267-6.433-10.267-14.377c0-8.725,3.77-11.215,4.597-12.66c0.827-1.442,2.419-2.149,2.419-7.807l-0.427-32.545  c0-2.036,1.646-3.679,3.678-3.679c2.024,0,3.676,1.643,3.676,3.679L62.24,53.086c0,5.657,1.442,6.237,2.471,7.807  c1.031,1.574,4.603,3.936,4.603,12.66C69.313,81.497,65.615,87.93,59.05,87.93z"></path></svg>
