<?xml version="1.0" standalone="no"?>
<!DOCTYPE svg PUBLIC "-//W3C//DTD SVG 20010904//EN"
 "http://www.w3.org/TR/2001/REC-SVG-20010904/DTD/svg10.dtd">
<svg version="1.0" xmlns="http://www.w3.org/2000/svg"
 viewBox="60 27.5 60 62"
 preserveAspectRatio="xMidYMid meet">
<metadata>
Created by potrace 1.13, written by Peter Selinger 2001-2015
</metadata>
<g transform="translate(0.000000,613.000000) scale(0.100000,-0.100000)"
fill="#000000" stroke="none">
<path d="M824 5836 c-62 -27 -83 -99 -44 -148 11 -14 63 -50 116 -79 106 -59
140 -92 150 -146 9 -49 -22 -121 -63 -149 -96 -65 -236 -18 -250 83 -5 39 -2
46 30 78 37 37 71 44 121 25 49 -18 42 -95 -8 -88 -15 2 -21 10 -21 28 0 34
-29 38 -50 7 -34 -52 20 -105 95 -93 77 12 105 98 51 158 -25 28 -35 32 -92
36 -55 3 -69 0 -99 -20 -40 -27 -70 -79 -70 -123 0 -53 40 -117 90 -145 66
-37 157 -35 223 3 88 52 126 149 97 251 -18 66 -60 108 -152 156 -87 44 -128
75 -128 95 0 26 38 46 81 43 41 -3 44 -5 44 -33 0 -23 5 -31 21 -33 24 -3 54
21 54 44 0 8 -11 26 -25 39 -20 21 -34 25 -82 25 -32 -1 -72 -7 -89 -14z"/>



"/>
</g>
</svg>
