<svg xmlns="http://www.w3.org/2000/svg" xmlns:xlink="http://www.w3.org/1999/xlink" version="1.1" x="0px" y="0px" viewBox="0 10 100 85" enable-background="new 0 0 100 100" xml:space="preserve"><g><rect x="37.938" y="29.24" fill="#000000" width="41.323" height="3.559"></rect><rect x="37.938" y="67.201" fill="#000000" width="41.323" height="3.559"></rect><rect x="37.938" y="48.221" fill="#000000" width="41.323" height="3.559"></rect><path fill="#000000" d="M27.264,37.544c3.597,0,6.524-2.928,6.524-6.525c0-3.597-2.928-6.524-6.524-6.524s-6.524,2.928-6.524,6.524   C20.739,34.617,23.667,37.544,27.264,37.544z M27.264,28.054c1.636,0,2.966,1.33,2.966,2.965s-1.33,2.966-2.966,2.966   s-2.966-1.33-2.966-2.966S25.628,28.054,27.264,28.054z"></path><path fill="#000000" d="M27.264,56.524c3.597,0,6.524-2.927,6.524-6.524c0-3.597-2.928-6.524-6.524-6.524S20.739,46.403,20.739,50   C20.739,53.597,23.667,56.524,27.264,56.524z M27.264,47.035c1.636,0,2.966,1.33,2.966,2.965s-1.33,2.966-2.966,2.966   s-2.966-1.33-2.966-2.966S25.628,47.035,27.264,47.035z"></path><path fill="#000000" d="M27.264,75.505c3.597,0,6.524-2.927,6.524-6.524s-2.928-6.524-6.524-6.524s-6.524,2.927-6.524,6.524   S23.667,75.505,27.264,75.505z M27.264,66.015c1.636,0,2.966,1.33,2.966,2.966s-1.33,2.966-2.966,2.966s-2.966-1.33-2.966-2.966   S25.628,66.015,27.264,66.015z"></path></g></svg>
