<?xml version="1.0" encoding="utf-8"?>
<!-- Generator: Adobe Illustrator 16.0.4, SVG Export Plug-In . SVG Version: 6.00 Build 0)  -->
<!DOCTYPE svg PUBLIC "-//W3C//DTD SVG 1.1//EN" "http://www.w3.org/Graphics/SVG/1.1/DTD/svg11.dtd">
<svg version="1.1" id="Layer_1" xmlns="http://www.w3.org/2000/svg" xmlns:xlink="http://www.w3.org/1999/xlink" x="0px" y="0px"
	viewBox="0 100 612 642" enable-background="new 0 100 612 642" xml:space="preserve">
<g>
	<g>
		<path fill="#231F20" d="M98.177,253.668l11.306,3.459c-2.496,11.637-6.865,20.318-13.105,26.04
			c-6.243,5.726-13.84,8.588-22.79,8.588c-7.868,0-14.593-1.926-20.173-5.763c-5.582-3.841-10.152-10.004-13.709-18.489
			c-3.557-8.489-5.334-18.506-5.334-30.049c0-11.411,1.779-21.065,5.339-28.958c3.559-7.897,8.382-13.86,14.465-17.893
			c6.082-4.033,12.872-6.044,20.369-6.044c8.206,0,15.256,2.549,21.149,7.646c5.894,5.098,10.02,12.585,12.378,22.453l-11.024,3.182
			c-3.774-14.365-11.345-21.552-22.713-21.552c-5.662,0-10.569,1.448-14.718,4.351c-4.153,2.899-7.466,7.41-9.943,13.542
			c-2.476,6.131-3.713,13.882-3.713,23.268c0,14.192,2.497,24.838,7.492,31.929c4.991,7.096,11.634,10.646,19.925,10.646
			c6.124,0,11.413-2.181,15.864-6.537C93.69,269.129,96.67,262.521,98.177,253.668z"/>
		<path fill="#231F20" d="M119.221,289.985V186.4h11.234v91.364h41.833v12.221H119.221z"/>
		<path fill="#231F20" d="M172.981,289.985L205.74,186.4h12.017l34.788,103.585h-12.86l-9.882-31.369h-35.737l-9.233,31.369H172.981
			z M197.353,247.45h28.933l-8.827-28.689c-2.73-8.811-4.733-15.972-6.003-21.483c-1.097,6.645-2.649,13.236-4.654,19.786
			L197.353,247.45z"/>
		<path fill="#231F20" d="M254.015,256.636l10.599-1.133c0.567,5.703,1.85,10.14,3.853,13.322c2.001,3.181,4.864,5.735,8.584,7.669
			c3.721,1.93,7.916,2.895,12.579,2.895c6.689,0,11.881-1.634,15.581-4.898c3.695-3.267,5.549-7.509,5.549-12.736
			c0-3.048-0.67-5.716-2.017-8.001c-1.338-2.275-3.368-4.142-6.076-5.603c-2.709-1.457-8.562-3.518-17.558-6.181
			c-8.008-2.376-13.709-4.765-17.101-7.169c-3.393-2.403-6.031-5.452-7.916-9.153c-1.883-3.696-2.826-7.879-2.826-12.54
			c0-8.383,2.708-15.238,8.128-20.564c5.416-5.321,12.719-7.983,21.903-7.983c6.311,0,11.837,1.247,16.571,3.746
			s8.407,6.076,11.024,10.741c2.617,4.662,4.014,10.151,4.205,16.463l-10.81,0.988c-0.564-6.736-2.581-11.729-6.045-14.979
			c-3.462-3.25-8.327-4.875-14.592-4.875c-6.359,0-11.21,1.424-14.556,4.273c-3.344,2.845-5.016,6.532-5.016,11.056
			c0,4.197,1.224,7.442,3.675,9.754c2.448,2.303,7.959,4.642,16.529,7.004c8.379,2.322,14.263,4.333,17.655,6.036
			c5.181,2.653,9.094,6.13,11.734,10.432c2.645,4.311,3.969,9.45,3.969,15.425c0,5.932-1.392,11.331-4.169,16.201
			c-2.781,4.869-6.564,8.575-11.342,11.118c-4.781,2.536-10.543,3.811-17.279,3.811c-10.504,0-18.877-3.154-25.119-9.472
			C257.49,275.975,254.25,267.423,254.015,256.636z"/>
		<path fill="#231F20" d="M329.537,256.636l10.601-1.133c0.565,5.703,1.848,10.14,3.851,13.322c2.003,3.181,4.861,5.735,8.584,7.669
			c3.723,1.93,7.916,2.895,12.582,2.895c6.686,0,11.879-1.634,15.575-4.898c3.7-3.267,5.553-7.509,5.553-12.736
			c0-3.048-0.673-5.716-2.017-8.001c-1.343-2.275-3.368-4.142-6.076-5.603c-2.713-1.457-8.565-3.518-17.56-6.181
			c-8.012-2.376-13.71-4.765-17.101-7.169c-3.392-2.403-6.031-5.452-7.916-9.153c-1.883-3.696-2.826-7.879-2.826-12.54
			c0-8.383,2.708-15.238,8.129-20.564c5.416-5.321,12.718-7.983,21.902-7.983c6.313,0,11.839,1.247,16.572,3.746
			s8.407,6.076,11.024,10.741c2.612,4.662,4.015,10.151,4.205,16.463l-10.813,0.988c-0.565-6.736-2.576-11.729-6.046-14.979
			c-3.459-3.25-8.324-4.875-14.588-4.875c-6.358,0-11.21,1.424-14.556,4.273c-3.345,2.845-5.021,6.532-5.021,11.056
			c0,4.197,1.229,7.442,3.679,9.754c2.448,2.303,7.96,4.642,16.53,7.004c8.375,2.322,14.266,4.333,17.652,6.036
			c5.179,2.653,9.094,6.13,11.738,10.432c2.644,4.311,3.965,9.45,3.965,15.425c0,5.932-1.394,11.331-4.17,16.201
			c-2.777,4.869-6.559,8.575-11.343,11.118c-4.778,2.536-10.541,3.811-17.272,3.811c-10.506,0-18.881-3.154-25.121-9.472
			C333.01,275.975,329.769,267.423,329.537,256.636z"/>
		<path fill="#231F20" d="M435.075,239.535c0-17.665,3.888-31.242,11.661-40.737c7.774-9.494,17.45-14.237,29.043-14.237
			c7.488,0,14.321,2.121,20.487,6.358c6.173,4.242,11.062,10.4,14.665,18.479c3.606,8.08,5.408,17.702,5.408,28.867
			c0,15.352-3.486,27.864-10.46,37.519c-7.678,10.647-17.733,15.972-30.172,15.972c-12.53,0-22.608-5.466-30.245-16.396
			C438.539,265.471,435.075,253.527,435.075,239.535z M446.664,239.712c0,12.777,2.816,22.69,8.447,29.741
			c5.626,7.045,12.472,10.573,20.528,10.573c8.239,0,15.156-3.56,20.736-10.682c5.58-7.119,8.375-17.583,8.375-31.397
			c0-8.907-1.438-16.881-4.31-23.905c-2.218-5.371-5.549-9.677-10-12.904c-4.452-3.231-9.312-4.847-14.593-4.847
			c-8.475,0-15.462,3.537-20.951,10.609C449.413,213.973,446.664,224.907,446.664,239.712z"/>
		<path fill="#231F20" d="M527.774,289.985V186.4h57.304v12.225h-46.072v32.08h39.855v12.221h-39.855v47.059H527.774z"/>
	</g>
</g>
<path fill="#231F20" d="M34.37,567.03l72.894-137.478c3.696-6.863,5.808-12.871,6.34-18.023c0.526-5.153,0.792-11.552,0.792-19.216
	c0-3.427-0.136-7.059-0.396-10.891c-0.267-3.828-0.99-7.196-2.18-10.1c-1.188-2.904-3.106-5.353-5.744-7.333
	c-2.643-1.979-6.475-2.972-11.488-2.972c-6.079,0-10.895,1.72-14.46,5.151c-3.566,3.433-5.348,8.457-5.348,15.056v22.975H34.37
	v-22.183c0-8.452,1.583-16.377,4.754-23.772c3.167-7.392,7.458-13.869,12.874-19.414c5.412-5.543,11.819-9.968,19.215-13.271
	c7.392-3.296,15.314-4.952,23.771-4.952c10.559,0,19.61,1.92,27.137,5.743c7.528,3.833,13.73,9.049,18.621,15.649
	c4.884,6.609,8.45,14.138,10.696,22.585c2.242,8.457,3.368,17.432,3.368,26.936c0,6.87-0.137,12.614-0.396,17.229
	c-0.266,4.625-0.791,9.059-1.584,13.273c-0.794,4.233-2.118,8.457-3.962,12.681c-1.849,4.224-4.357,9.376-7.527,15.447
	L81.909,564.654h72.896v40.409H34.37V567.03z"/>
<path fill="#231F20" d="M171.84,381.226c0-9.512,1.645-17.96,4.952-25.356c3.297-7.392,7.724-13.732,13.271-19.017
	c5.548-5.279,11.948-9.308,19.214-12.084c7.262-2.772,14.857-4.159,22.78-4.159c7.922,0,15.513,1.387,22.779,4.159
	c7.262,2.777,13.668,6.805,19.216,12.084c5.544,5.285,9.968,11.625,13.271,19.017c3.301,7.396,4.952,15.844,4.952,25.356v165.595
	c0,9.513-1.651,17.97-4.952,25.353c-3.304,7.4-7.727,13.737-13.271,19.016c-5.548,5.29-11.954,9.313-19.216,12.089
	c-7.266,2.769-14.856,4.161-22.779,4.161c-7.923,0-15.519-1.393-22.78-4.161c-7.266-2.775-13.666-6.799-19.214-12.089
	c-5.547-5.278-9.974-11.615-13.271-19.016c-3.307-7.383-4.952-15.84-4.952-25.353V381.226z M212.249,546.821
	c0,5.816,1.843,10.633,5.546,14.465c3.695,3.832,8.451,5.744,14.262,5.744c5.806,0,10.561-1.912,14.262-5.744
	c3.697-3.832,5.546-8.648,5.546-14.465V381.226c0-5.807-1.849-10.631-5.546-14.465c-3.701-3.823-8.457-5.743-14.262-5.743
	c-5.812,0-10.567,1.92-14.262,5.743c-3.703,3.833-5.546,8.658-5.546,14.465V546.821z"/>
<path fill="#231F20" d="M309.31,567.03l72.895-137.478c3.695-6.863,5.808-12.871,6.34-18.023c0.524-5.153,0.793-11.552,0.793-19.216
	c0-3.427-0.137-7.059-0.396-10.891c-0.264-3.828-0.992-7.196-2.181-10.1c-1.188-2.904-3.108-5.353-5.744-7.333
	c-2.644-1.979-6.477-2.972-11.488-2.972c-6.076,0-10.892,1.72-14.461,5.151c-3.567,3.433-5.348,8.457-5.348,15.056v22.975H309.31
	v-22.183c0-8.452,1.585-16.377,4.757-23.772c3.168-7.392,7.455-13.869,12.872-19.414c5.412-5.543,11.815-9.968,19.217-13.271
	c7.393-3.296,15.312-4.952,23.768-4.952c10.562,0,19.609,1.92,27.138,5.743c7.527,3.833,13.729,9.049,18.62,15.649
	c4.884,6.609,8.452,14.138,10.697,22.585c2.244,8.457,3.366,17.432,3.366,26.936c0,6.87-0.135,12.614-0.395,17.229
	c-0.264,4.625-0.792,9.059-1.585,13.273c-0.791,4.233-2.121,8.457-3.959,12.681c-1.853,4.224-4.36,9.376-7.527,15.447
	l-59.427,114.501h72.893v40.409H309.31V567.03z"/>
<path fill="#231F20" d="M446.782,381.226c0-9.512,1.644-17.96,4.952-25.356c3.296-7.392,7.719-13.732,13.268-19.017
	c5.548-5.279,11.948-9.308,19.213-12.084c7.264-2.772,14.856-4.159,22.785-4.159c7.919,0,15.512,1.387,22.775,4.159
	c7.265,2.777,13.67,6.805,19.217,12.084c5.545,5.285,9.969,11.625,13.273,19.017c3.295,7.396,4.951,15.844,4.951,25.356v165.595
	c0,9.513-1.656,17.97-4.951,25.353c-3.305,7.4-7.729,13.737-13.273,19.016c-5.547,5.29-11.952,9.313-19.217,12.089
	c-7.264,2.769-14.856,4.161-22.775,4.161c-7.929,0-15.521-1.393-22.785-4.161c-7.265-2.775-13.665-6.799-19.213-12.089
	c-5.549-5.278-9.972-11.615-13.268-19.016c-3.309-7.383-4.952-15.84-4.952-25.353V381.226z M487.191,546.821
	c0,5.816,1.839,10.633,5.543,14.465c3.697,3.832,8.449,5.744,14.266,5.744c5.803,0,10.559-1.912,14.261-5.744
	c3.695-3.832,5.548-8.648,5.548-14.465V381.226c0-5.807-1.853-10.631-5.548-14.465c-3.702-3.823-8.458-5.743-14.261-5.743
	c-5.816,0-10.568,1.92-14.266,5.743c-3.704,3.833-5.543,8.658-5.543,14.465V546.821z"/>
</svg>
