<?xml version="1.0" encoding="utf-8"?>
<!-- Generator: Adobe Illustrator 16.0.4, SVG Export Plug-In . SVG Version: 6.00 Build 0)  -->
<!DOCTYPE svg PUBLIC "-//W3C//DTD SVG 1.1//EN" "http://www.w3.org/Graphics/SVG/1.1/DTD/svg11.dtd">
<svg version="1.1" id="Layer_1" xmlns="http://www.w3.org/2000/svg" xmlns:xlink="http://www.w3.org/1999/xlink" x="0px" y="0px"
	viewBox="0 0 612 792" enable-background="new 0 0 612 792" xml:space="preserve">
<g>
	<g>
		<path d="M220.632,478.161c-10.426,9.891-17.116,24.237-17.116,37.233c0,0.34,0.016,0.671,0.023,1.005h1.098
			c13.051-2.936,27.177-4.609,41.94-4.774c2.2,7.391,3.674,15.021,4.249,22.911c1.559,21.227-5.151,40.36-14.997,58.78
			c-8.233,15.416-15.22,30.617-15.558,48.395c-0.338,18.584,7.762,36.598,16.446,52.561c4.444,8.179,16.909,0.895,12.462-7.283
			c-9.421-17.321-17.111-36.229-13.448-56.281c3.45-18.921,16.453-35.07,23.225-52.854c6.782-17.81,7.908-36.592,4.886-54.841
			C248.347,510.818,233.823,495.778,220.632,478.161z"/>
		<path d="M209.196,461.774c-31.893-49.336-50.178-109.784-50.178-165.843c0-117.183,79.819-213.959,182-226.269
			c-26.731-18.927-58.283-29.874-92.097-29.874c-96.234,0-174.236,88.551-174.236,197.784c0,94.675,58.61,201.099,136.889,227.781
			C210.783,464.162,209.981,462.982,209.196,461.774z"/>
		<path d="M537.314,295.931c0-105.54-72.826-191.764-164.557-197.47c-3.201-0.199-6.438-0.312-9.68-0.312
			c-96.229,0-174.242,88.553-174.242,197.783c0,81.181,43.088,170.98,104.724,211.759c16.241,10.744,33.762,18.1,52.135,20.976
			c-16.457,8.536-28.024,27.991-28.024,45.09c0,0.335,0.01,0.668,0.029,1.004h1.088c13.062-2.939,27.182-4.613,41.952-4.775
			c2.194,7.394,3.666,15.024,4.239,22.919c1.573,21.227-5.145,40.354-14.988,58.776c-8.235,15.418-15.231,30.623-15.549,48.388
			c-0.354,18.591,7.757,36.604,16.435,52.562c4.445,8.178,16.908,0.895,12.456-7.285c-9.415-17.319-17.094-36.216-13.447-56.279
			c3.461-18.916,16.455-35.065,23.229-52.85c8.159-21.428,8.159-44.266,2.569-65.877c11.056,0.666,21.679,2.175,31.68,4.421h1.098
			c0.005-0.336,0.024-0.669,0.024-1.004c0-17.099-11.574-36.554-28.019-45.09C468.531,514.859,537.314,398.5,537.314,295.931z
			 M422.233,217.055c-13.586-9.103-24.333-11.797-24.333-11.797l18.665-21.765l6.458-7.539c0,0,22.333,2.788,34.894,37.679
			c12.552,34.894,9.771,57.225,9.771,57.225s-5.587-15.352-26.52-37.683C434.756,226.335,428.218,221.074,422.233,217.055z"/>
	</g>
</g>
</svg>
