<?xml version="1.0" encoding="utf-8"?>
<!-- Generator: Adobe Illustrator 16.0.4, SVG Export Plug-In . SVG Version: 6.00 Build 0)  -->
<!DOCTYPE svg PUBLIC "-//W3C//DTD SVG 1.1//EN" "http://www.w3.org/Graphics/SVG/1.1/DTD/svg11.dtd" [
	<!ENTITY ns_flows "http://ns.adobe.com/Flows/1.0/">
	<!ENTITY ns_extend "http://ns.adobe.com/Extensibility/1.0/">
	<!ENTITY ns_ai "http://ns.adobe.com/AdobeIllustrator/10.0/">
	<!ENTITY ns_graphs "http://ns.adobe.com/Graphs/1.0/">
]>
<svg version="1.1" id="Layer_1" xmlns:x="&ns_extend;" xmlns:i="&ns_ai;" xmlns:graph="&ns_graphs;"
	 xmlns="http://www.w3.org/2000/svg" xmlns:xlink="http://www.w3.org/1999/xlink" xmlns:a="http://ns.adobe.com/AdobeSVGViewerExtensions/3.0/"
	 x="0px" y="0px" viewBox="30 35 532 752" enable-background="new 0 0 612 792" xml:space="preserve">
<g>
	<path d="M292.207,755.825c-61.291,0-113.617-16.684-155.526-49.587c-46.976-36.855-70.795-87.669-70.795-151.029
		c0-44.625,16.589-83.404,49.306-115.26c32.58-31.834,72.354-47.977,118.216-47.977c44.494,0,81.163,9.682,108.989,28.778
		c31.218,21.676,47.041,52.729,47.041,92.308c0,29.174-10.62,53.631-31.565,72.689c-21.018,19.157-45.764,28.871-73.55,28.871
		c-25.381,0-46.936-5.416-64.065-16.097c-20.879-12.664-31.479-31.169-31.479-54.983c0-14.533,5.281-26.357,16.146-36.15
		c8.186-7.572,15.714-11.95,22.35-12.99c8.03-1.235,9.844-1.461,10.526-1.461c3.751,0,5.991,2.09,5.991,5.59v0.339l-0.09,0.326
		c-0.266,0.962-0.559,1.925-0.853,2.888c-0.288,0.943-0.576,1.887-0.834,2.83l-0.059,0.216l-0.097,0.202
		c-0.271,0.564-0.837,2.61-1.555,5.199l-0.094,0.341c-1.658,5.991-2.499,13.057-2.499,20.999c0,9.222,4.307,17.338,12.801,24.124
		c8.86,7.082,18.188,10.524,28.515,10.524c17.707,0,31.93-5.826,43.483-17.811c11.657-12.088,17.324-26.63,17.324-44.456
		c0-26.176-11.894-47.099-35.35-62.188c-20.78-13.006-45.877-19.608-74.568-19.608c-36.918,0-69.288,12.358-96.209,36.733
		c-28.308,25.466-42.658,57.771-42.658,96.024c0,25.06,5.401,47.886,16.052,67.844c10.66,19.976,26.921,37.72,48.331,52.74
		c38.077,27.035,84.395,40.739,137.677,40.739c53.742,0,100.568-18.911,139.179-56.208c40.008-38.394,60.29-86.899,60.29-144.175
		c0-31.1-6.713-58.727-19.951-82.111c-11.484-20.823-28.963-40.321-53.444-59.632c-17.218-13.851-42.652-30.441-75.616-49.323
		c-43.169-22.89-86.718-46.166-129.367-69.141l-0.093-0.05l-0.088-0.058c-44.103-28.812-66.464-63.35-66.464-102.655
		c0-38.958,17.949-69.694,53.348-91.353c30.555-18.494,68.055-27.868,111.469-27.868c33.127,0,59.905,4.191,79.593,12.457
		c27.476,11.521,41.407,30.962,41.407,57.785c0,10.983-3.965,20.998-11.783,29.766c-7.981,8.946-14.984,13.653-21.41,14.39
		c-5.385,0.634-9.809,0.97-12.787,0.97c-6.771,0-12.448-1.219-17.356-3.726l-0.226-0.115l-0.197-0.158
		c-4.767-3.805-5.67-5.338-5.67-6.835c0-2.267,1.183-4.812,3.517-7.566l0.068-0.077c4.072-4.424,6.845-8.951,8.238-13.455
		l0.032-0.097c1.7-4.789,2.562-9.875,2.562-15.117c0-15.086-7.299-26.24-22.313-34.099c-12.117-6.288-27.725-9.478-46.381-9.478
		c-30.119,0-55.535,5.35-75.541,15.902c-23.856,12.516-35.95,30.758-35.95,54.221c0,17.188,8.719,33.208,25.915,47.613
		c12.277,10.225,34.242,23.136,65.279,38.371c45.309,21.864,73.408,35.808,81.245,40.318c39.396,21.223,69.718,40.957,90.059,58.62
		c27.469,23.511,48.231,50.685,61.697,80.756c14.945,33.906,22.52,75.505,22.52,123.655c0,69.093-26.283,127.325-78.119,173.079
		C417.935,734.062,359.205,755.825,292.207,755.825z"/>
	<path fill="#FFFFFF" d="M312.369,36.458c33.194,0,59.25,4.127,78.625,12.262c26.505,11.114,39.875,29.608,39.875,55.479
		c0,10.442-3.717,19.768-11.149,28.102c-7.436,8.335-13.967,12.898-19.829,13.57c-5.63,0.663-9.799,0.954-12.502,0.954
		c-6.46,0-11.713-1.15-16.22-3.452c-3.231-2.58-4.729-4.206-4.729-4.882c0-1.626,0.974-3.648,2.924-5.95
		c4.131-4.487,7.215-9.328,8.788-14.409c1.803-5.079,2.706-10.395,2.706-15.954c0-15.992-7.885-28.06-23.654-36.314
		c-12.542-6.508-28.312-9.763-47.54-9.763c-30.636,0-56.169,5.358-76.708,16.19c-24.818,13.021-37.283,31.907-37.283,56.433
		c0,17.904,8.858,34.491,26.809,49.529c12.538,10.442,34.504,23.345,65.783,38.698c46.636,22.504,73.591,35.92,81.099,40.241
		c39.276,21.159,69.241,40.604,89.667,58.34c27.406,23.458,47.761,50.205,61.055,79.89c14.868,33.733,22.301,74.533,22.301,122.633
		c0,68.579-25.835,125.802-77.273,171.205c-48.588,42.71-106.108,64.062-172.906,64.062c-60.866,0-112.231-16.274-153.982-49.054
		c-46.636-36.588-69.839-86.202-69.839-149.062c0-44.057,16.182-81.953,48.55-113.469c32.25-31.512,71.111-47.268,116.472-47.268
		c44.191,0,79.934,9.372,107.574,28.339c30.638,21.272,45.956,51.355,45.956,90.246c0,28.572-10.249,52.188-30.748,70.841
		c-20.729,18.894-44.722,28.22-71.867,28.22c-24.82,0-45.811-5.16-62.743-15.718c-20.162-12.229-30.301-30.08-30.301-52.862
		c0-13.811,5.104-25.086,15.319-34.293c7.887-7.296,14.982-11.425,21.063-12.378c6.197-0.953,9.498-1.431,10.139-1.431
		c2.326,0,3.491,0.954,3.491,3.09c-0.526,1.907-1.165,3.814-1.688,5.722c-0.379,0.792-0.901,2.698-1.803,5.951
		c-1.803,6.514-2.59,13.808-2.59,21.667c0,9.932,4.503,18.697,13.741,26.077c9.237,7.383,19.222,11.071,30.076,11.071
		c18.211,0,33.266-6.109,45.283-18.575c12.015-12.459,18.024-27.776,18.024-46.191c0-27.387-12.319-48.737-36.498-64.291
		c-21.064-13.184-46.334-20.006-75.921-20.006c-37.736,0-70.366,12.463-97.887,37.38c-28.949,26.043-43.48,58.818-43.48,97.878
		c0,51.188,21.775,91.991,65.447,122.631c38.896,27.616,85.229,41.192,139.113,41.192c54.781,0,101.637-18.967,140.916-56.91
		c40.698-39.057,61.053-87.944,61.053-145.973c0-31.822-6.837-59.604-20.275-83.343c-11.64-21.104-29.665-41.111-54.072-60.363
		c-16.672-13.413-41.825-29.999-75.922-49.529c-43.176-22.896-86.394-45.992-129.424-69.172
		c-43.557-28.455-65.332-61.988-65.332-100.562c0-38.26,17.382-67.946,52.152-89.221C232.43,45.665,269.076,36.458,312.369,36.458
		 M312.369,31.458c-43.877,0-81.812,9.496-112.753,28.223c-36.213,22.156-54.563,53.609-54.563,93.498
		c0,40.203,22.743,75.445,67.597,104.748l0.177,0.116l0.186,0.1c42.634,22.967,86.165,46.233,129.382,69.15
		c32.816,18.8,58.117,35.301,75.201,49.045c24.253,19.13,41.521,38.381,52.828,58.882l0.013,0.024l0.014,0.023
		c13.023,23.005,19.627,50.217,19.627,80.88c0,28.241-5.006,54.542-14.878,78.173c-9.882,23.654-24.9,45.252-44.637,64.192
		c-19.105,18.455-40.316,32.467-63.057,41.655c-22.762,9.198-47.793,13.862-74.397,13.862c-26.397,0-51.213-3.376-73.761-10.035
		c-22.581-6.669-43.595-16.841-62.458-30.234c-21.108-14.809-37.11-32.261-47.583-51.887
		c-10.456-19.592-15.758-42.022-15.758-66.667c0-37.514,14.072-69.194,41.824-94.161c13.247-11.993,27.896-21.101,43.553-27.08
		c15.667-5.982,32.823-9.017,50.99-9.017c28.201,0,52.842,6.469,73.239,19.226c22.998,14.804,34.18,34.454,34.18,60.071
		c0,17.147-5.438,31.121-16.623,42.721c-11.058,11.471-24.692,17.046-41.684,17.046c-9.738,0-18.555-3.264-26.954-9.977
		c-7.982-6.378-11.862-13.63-11.862-22.172c0-7.718,0.811-14.559,2.409-20.333l0.093-0.337c0.613-2.212,1.192-4.302,1.417-4.824
		l0.193-0.404l0.103-0.397c0.246-0.897,0.522-1.803,0.814-2.762c0.292-0.957,0.594-1.947,0.872-2.953l0.18-0.652v-0.677
		c0-4.914-3.333-8.09-8.491-8.09c-0.83,0-2.175,0.146-10.899,1.488c-7.143,1.12-15.102,5.703-23.673,13.626
		c-11.247,10.147-16.95,22.929-16.95,37.987c0,12.239,2.775,23.299,8.25,32.871c5.475,9.572,13.692,17.729,24.426,24.247
		c17.529,10.924,39.521,16.462,65.368,16.462c28.429,0,53.741-9.934,75.235-29.524c21.484-19.55,32.38-44.629,32.38-74.536
		c0-40.445-16.185-72.19-48.104-94.354c-14.24-9.772-30.772-17.173-49.159-22.011c-18.21-4.792-38.823-7.221-61.266-7.221
		c-46.537,0-86.899,16.382-119.966,48.692c-33.212,32.338-50.056,71.72-50.056,117.045c0,32.033,6.023,61.137,17.903,86.504
		c11.91,25.432,30.027,47.803,53.85,66.492c21.225,16.664,45.245,29.331,71.393,37.65c26.009,8.274,54.834,12.47,85.675,12.47
		c33.824,0,65.793-5.493,95.019-16.327c29.221-10.831,56.536-27.311,81.188-48.98c26.144-23.075,46.053-49.521,59.183-78.609
		c13.132-29.092,19.79-61.509,19.79-96.351c0-48.499-7.646-90.438-22.726-124.65c-13.631-30.438-34.614-57.907-62.379-81.672
		c-20.443-17.752-50.895-37.58-90.486-58.912c-7.974-4.577-36.1-18.535-81.358-40.374c-30.828-15.132-52.625-27.935-64.756-38.038
		c-16.591-13.899-25.009-29.273-25.009-45.687c0-11.211,2.862-21.229,8.507-29.775c5.726-8.669,14.507-16.148,26.099-22.23
		c19.653-10.365,44.676-15.618,74.385-15.618c18.251,0,33.471,3.096,45.237,9.201c14.097,7.379,20.957,17.809,20.957,31.876
		c0,4.956-0.813,9.761-2.418,14.281l-0.034,0.096l-0.03,0.098c-1.284,4.146-3.871,8.353-7.69,12.501l-0.069,0.076l-0.066,0.079
		c-2.727,3.217-4.109,6.307-4.109,9.182c0,2.658,1.606,4.794,6.609,8.789l0.396,0.316l0.45,0.229c5.27,2.691,11.318,4,18.494,4
		c3.074,0,7.6-0.342,13.087-0.988c7.048-0.808,14.567-5.783,22.976-15.207c8.24-9.24,12.418-19.815,12.418-31.431
		c0-27.925-14.447-48.143-42.941-60.09C372.935,35.715,345.83,31.458,312.369,31.458L312.369,31.458z"/>
</g>
</svg>
