<?xml version="1.0" standalone="no"?>
<!DOCTYPE svg PUBLIC "-//W3C//DTD SVG 20010904//EN"
 "http://www.w3.org/TR/2001/REC-SVG-20010904/DTD/svg10.dtd">
<svg version="1.0" xmlns="http://www.w3.org/2000/svg"
 width="320.000000pt" height="480.000000pt" viewBox="0 100 320.000000 380.000000"
 preserveAspectRatio="xMidYMid meet">
<metadata>
Created by potrace 1.12, written by Peter Selinger 2001-2015
</metadata>
<g transform="translate(0.000000,480.000000) scale(0.100000,-0.100000)"
fill="#000000" stroke="none">
<path d="M0 2400 l0 -2400 1600 0 1600 0 0 2400 0 2400 -1600 0 -1600 0 0
-2400z m944 931 c9 -10 18 -29 20 -42 4 -40 25 -79 41 -79 15 0 15 14 -1 70
-2 9 2 8 11 -4 8 -11 15 -30 15 -43 0 -20 30 -47 55 -48 6 0 9 -10 7 -22 -2
-12 2 -24 8 -28 18 -11 11 -35 -13 -46 -23 -10 -24 -15 -25 -130 -2 -98 1
-121 13 -125 24 -10 17 -29 -10 -29 -14 0 -25 4 -25 9 0 4 -11 5 -24 2 -14 -3
-28 -1 -31 4 -5 8 -11 7 -21 -1 -10 -8 -14 -8 -14 0 0 6 -4 11 -10 11 -5 0
-10 -6 -10 -14 0 -10 16 -17 45 -22 25 -3 48 -11 51 -16 10 -15 -54 0 -106 25
-25 12 -45 27 -45 33 0 16 -29 41 -43 36 -6 -2 -12 -10 -12 -17 0 -7 -17 -20
-39 -28 -21 -9 -41 -23 -44 -31 -4 -9 -16 -16 -27 -16 -12 0 -30 -5 -41 -10
-17 -9 -19 -7 -19 17 -1 15 -2 83 -5 149 -3 111 -6 125 -30 160 l-26 39 28 22
c17 14 27 30 25 43 -3 21 12 27 23 10 10 -17 35 16 35 47 0 30 24 73 41 73 6
0 8 -8 5 -17 -3 -10 -8 -35 -12 -55 -6 -35 -4 -38 16 -38 15 0 20 5 17 14 -3
8 1 20 8 26 10 8 12 18 6 28 -15 27 -1 52 31 52 27 0 29 -3 26 -31 -2 -16 -10
-34 -18 -39 -13 -8 -12 -10 3 -10 9 0 17 -7 17 -15 0 -11 9 -15 30 -13 28 2
36 14 30 43 -1 6 -3 25 -5 43 -3 38 21 44 49 13z m-13 -575 c46 -10 111 -23
144 -31 33 -7 86 -19 118 -25 37 -8 57 -16 57 -26 0 -8 9 -23 20 -34 19 -19
19 -20 -19 -50 -26 -21 -38 -39 -38 -56 0 -13 3 -24 8 -24 5 0 9 -9 9 -20 0
-11 -7 -20 -15 -20 -18 0 -18 21 -4 -270 5 -129 15 -240 20 -246 5 -6 7 -19 3
-28 -4 -11 1 -19 18 -25 23 -8 37 -51 17 -51 -5 0 -9 -7 -9 -16 0 -12 -6 -15
-25 -10 -14 4 -25 2 -25 -4 0 -5 5 -10 10 -10 6 0 10 -4 10 -9 0 -5 -11 -8
-23 -7 -17 1 -23 6 -20 17 3 9 -3 19 -12 23 -12 4 -16 2 -12 -8 4 -9 -4 -18
-22 -25 -32 -14 -163 10 -186 33 -8 7 -30 17 -49 20 -25 5 -34 11 -29 21 7 20
-14 19 -25 -1 -10 -18 -119 -29 -138 -13 -8 6 -13 3 -17 -11 -3 -11 -13 -23
-24 -26 -10 -3 -28 -11 -41 -17 -22 -10 -22 -12 -5 -19 21 -8 150 1 173 12 8
4 130 -12 270 -36 140 -24 288 -49 328 -56 63 -10 71 -14 66 -30 -3 -10 0 -18
6 -18 6 0 8 -4 5 -10 -3 -5 3 -10 14 -10 49 0 21 -40 -56 -80 -32 -16 -43 -28
-43 -45 0 -13 -5 -25 -12 -27 -6 -2 3 -10 20 -17 36 -15 39 -24 15 -43 -24
-17 -24 -29 -13 -188 6 -74 14 -215 20 -312 9 -176 9 -178 36 -203 21 -20 25
-28 16 -37 -17 -17 -15 -38 3 -38 8 0 15 -4 15 -10 0 -5 -4 -10 -10 -10 -5 0
-10 -9 -10 -20 0 -13 -5 -18 -15 -14 -8 3 -13 11 -12 16 1 6 -4 13 -11 15 -7
3 -15 -7 -18 -27 -4 -19 -11 -29 -19 -26 -8 3 -96 12 -197 22 -179 16 -242 28
-223 42 13 9 17 52 5 52 -6 0 -10 -9 -10 -20 0 -22 -1 -23 -23 -14 -9 3 -13
13 -10 25 3 10 0 19 -6 19 -10 0 -16 -27 -12 -57 2 -15 -35 -17 -44 -3 -3 6 1
10 9 10 9 0 16 5 16 11 0 5 -4 7 -10 4 -6 -3 -10 5 -10 19 0 24 -2 25 -27 15
-20 -7 -29 -7 -31 1 -3 8 -8 7 -18 -1 -8 -6 -46 -12 -84 -12 -46 -1 -70 -5
-70 -12 0 -12 -77 -52 -83 -44 -2 2 -9 15 -15 29 l-12 25 5 -27 c6 -29 -11
-39 -21 -13 -4 8 -11 12 -17 8 -7 -4 -20 -8 -31 -9 -11 0 -22 -6 -24 -12 -2
-7 -10 -12 -18 -12 -8 0 -14 -7 -14 -16 0 -14 -2 -15 -16 -3 -15 12 -16 11
-10 -8 4 -12 2 -24 -4 -28 -5 -3 -10 2 -10 12 0 10 -7 27 -15 37 -8 11 -15 31
-15 44 l0 23 29 -20 c30 -22 43 -19 33 7 -5 15 -3 15 21 -1 32 -21 37 -5 5 18
-22 16 -22 16 19 11 23 -2 44 -2 47 1 3 3 -1 18 -9 34 -8 15 -15 46 -15 69 0
25 -4 39 -10 35 -6 -3 -10 -31 -10 -61 0 -52 -1 -54 -27 -54 -16 0 -37 -7 -47
-15 -11 -8 -26 -15 -34 -15 -12 0 -12 4 3 19 15 17 17 38 16 152 -2 122 -1
130 14 115 9 -9 18 -23 19 -30 2 -14 61 -86 71 -86 12 0 4 28 -9 33 -8 3 -24
25 -36 49 -11 24 -27 54 -34 68 -8 14 -17 40 -21 59 -7 33 -7 34 16 18 17 -12
26 -14 36 -5 10 8 13 5 13 -13 0 -17 3 -20 9 -10 6 9 11 10 15 2 12 -19 24 -3
19 26 -4 28 -4 28 14 8 10 -11 25 -21 34 -23 15 -2 15 2 5 30 -6 18 -15 39
-19 46 -12 18 1 15 34 -9 38 -27 59 -19 59 22 0 26 -3 29 -14 20 -10 -8 -21
-9 -42 -1 -15 6 -33 9 -39 6 -7 -2 -18 0 -26 4 -7 5 -18 5 -24 0 -15 -12 -67
-16 -83 -6 -8 5 -12 34 -12 84 0 95 -6 120 -32 128 -19 6 -19 7 8 30 16 13 34
21 41 19 19 -6 25 12 11 34 -7 11 -8 24 -4 28 5 4 11 2 13 -4 3 -9 10 -10 24
-3 15 9 17 15 9 30 -17 32 -11 46 10 20 10 -14 22 -21 26 -17 4 4 16 -1 27
-10 22 -20 22 -21 0 34 -4 11 -3 14 6 8 10 -6 11 -3 1 15 -7 14 -15 18 -19 12
-4 -6 -12 -7 -20 -3 -7 5 -10 14 -7 20 4 6 12 9 17 6 18 -12 8 9 -17 36 -14
15 -21 29 -16 32 5 4 22 -12 38 -33 32 -45 92 -84 79 -52 -4 9 -8 23 -8 30 0
7 -6 11 -13 8 -15 -6 -74 43 -74 61 0 16 29 31 57 28 18 -1 20 1 12 12 -6 7
-20 13 -30 13 -13 0 -17 7 -17 31 1 17 7 33 15 36 7 3 13 14 13 24 0 27 30 37
45 16 15 -21 25 -22 25 -1 0 8 5 12 10 9 6 -3 10 0 10 8 0 9 -14 14 -42 15
-23 1 -45 5 -48 10 -8 10 6 371 15 400 6 19 13 23 33 19 18 -3 26 0 29 14 8
31 21 22 28 -21 8 -48 23 -51 53 -10 27 36 27 36 -3 44 -19 5 -25 13 -26 34
-5 101 -18 143 -42 141 -7 0 -34 -11 -62 -24 -57 -27 -70 -25 -32 6 15 11 27
25 27 31 0 6 -8 4 -18 -5 -19 -18 -55 -6 -46 16 2 7 -7 19 -21 27 -14 7 -25
16 -25 19 0 4 53 42 118 86 113 77 119 80 179 82 34 0 70 6 80 12 10 6 23 9
29 7 5 -2 48 -11 95 -20z "/>
</g>
</svg>
