<?xml version="1.0" encoding="utf-8"?>
<!-- Generator: Adobe Illustrator 16.0.4, SVG Export Plug-In . SVG Version: 6.00 Build 0)  -->
<!DOCTYPE svg PUBLIC "-//W3C//DTD SVG 1.1//EN" "http://www.w3.org/Graphics/SVG/1.1/DTD/svg11.dtd">
<svg version="1.1" id="Layer_1" xmlns="http://www.w3.org/2000/svg" xmlns:xlink="http://www.w3.org/1999/xlink" x="0px" y="0px"
	 viewBox="0 75 612 632" enable-background="new 0 0 612 792" xml:space="preserve">
<path d="M306.043,493.438c80.049,0,145.532-65.483,145.532-145.532c0-80.051-65.483-145.535-145.532-145.535
	c-80.008,0-145.534,65.483-145.534,145.535C160.509,427.955,226.035,493.438,306.043,493.438z M306.043,238.768
	c60.396,0,109.18,48.743,109.18,109.139c0,60.396-48.784,109.18-109.18,109.18c-60.396,0-109.139-48.784-109.139-109.18
	C196.904,287.51,245.646,238.768,306.043,238.768z"/>
<path d="M306.043,407.605c34.219,0,61.872-27.654,61.872-61.873c0-34.183-27.653-61.832-61.872-61.832
	c-34.178,0-61.832,27.649-61.832,61.832C244.211,379.951,271.865,407.605,306.043,407.605z M306.043,320.991
	c13.868,0,25.521,11.653,25.521,25.479c0,13.827-11.653,25.48-25.521,25.48c-13.828,0-25.438-11.653-25.438-25.48
	C280.604,332.644,292.215,320.991,306.043,320.991z"/>
<path d="M451.575,202.372c10.057,0,18.176,8.163,18.176,18.22c0,10.025-8.119,18.176-18.176,18.176s-18.177-8.151-18.177-18.176
	C433.398,210.535,441.519,202.372,451.575,202.372z"/>
<path d="M33.195,347.907c0,109.877,64.744,204.492,157.882,247.386c-13.088,10.24-21.828,25.461-21.828,43.691
	c0,29.859,24.741,54.557,54.569,54.557h163.751c29.828,0,54.527-24.697,54.527-54.557c0-17.45-8.698-33.451-21.828-43.691
	c93.138-43.674,157.924-138.206,157.924-247.386C578.892,197.287,456.704,75.06,306.043,75.06
	C155.422,75.06,33.195,197.287,33.195,347.907z M388.267,657.189H224.558c-10.175,0-18.176-8.001-18.176-18.205
	c0-10.227,8.001-18.23,18.176-18.23h163.709c10.174,0,18.175,8.004,18.175,18.23C406.441,649.188,397.744,657.189,388.267,657.189z
	 M306.043,111.438c130.228,0,236.495,106.24,236.495,236.469c0,130.228-106.268,236.495-236.495,236.495
	c-130.229,0-236.454-106.267-236.454-236.495C69.589,217.678,175.814,111.438,306.043,111.438z"/>
</svg>
