<svg xmlns="http://www.w3.org/2000/svg" xmlns:xlink="http://www.w3.org/1999/xlink" version="1.0" x="0px" y="0px" viewBox="0 0 100 100" enable-background="new 0 0 100 100" xml:space="preserve"><path d="M96.418-0.138H3.582C1.612-0.138,0,1.475,0,3.444v64.479c0,1.97,1.612,3.582,3.582,3.582h49.915v26.838h0.001v0.006  c0,0.988,0.802,1.789,1.79,1.789c0.543,0,1.029-0.241,1.357-0.622h0.001l24.462-28.011h15.31c1.971,0,3.582-1.612,3.582-3.582V3.444  C100,1.475,98.389-0.138,96.418-0.138z M89.097,60.518H10.738c-1.938,0-3.524-1.586-3.524-3.523c0-1.938,1.586-3.524,3.524-3.524  h78.358c1.938,0,3.524,1.586,3.524,3.524C92.621,58.932,91.035,60.518,89.097,60.518z M89.097,46.214H10.738  c-1.938,0-3.524-1.585-3.524-3.523s1.586-3.524,3.524-3.524h78.358c1.938,0,3.524,1.586,3.524,3.524S91.035,46.214,89.097,46.214z   M89.097,31.91H10.738c-1.938,0-3.524-1.585-3.524-3.523s1.586-3.524,3.524-3.524h78.358c1.938,0,3.524,1.586,3.524,3.524  S91.035,31.91,89.097,31.91z M89.097,17.742H10.738c-1.938,0-3.524-1.586-3.524-3.524c0-1.938,1.586-3.523,3.524-3.523h78.358  c1.938,0,3.524,1.586,3.524,3.523C92.621,16.156,91.035,17.742,89.097,17.742z"></path></svg>
