<?xml version="1.0" standalone="no"?>
<!DOCTYPE svg PUBLIC "-//W3C//DTD SVG 20010904//EN"
 "http://www.w3.org/TR/2001/REC-SVG-20010904/DTD/svg10.dtd">
<svg version="1.0" xmlns="http://www.w3.org/2000/svg"
 width="300.000000pt" height="300.000000pt" viewBox="0 0 300.000000 300.000000"
 preserveAspectRatio="xMidYMid meet">
<metadata>
Created by potrace 1.10, written by Peter Selinger 2001-2011
</metadata>
<g transform="translate(0.000000,300.000000) scale(0.100000,-0.100000)"
fill="#001F86" stroke="none">
<path d="M1375 2988 c-559 -51 -1032 -396 -1251 -911 -78 -184 -123 -405 -109
-540 3 -38 3 -67 -2 -64 -5 3 -5 -38 -1 -91 28 -351 166 -662 410 -917 201
-211 429 -345 718 -422 85 -23 119 -26 320 -30 182 -4 242 -2 313 11 306 58
563 192 783 411 262 261 413 582 433 925 20 338 -23 566 -160 830 -77 150
-163 263 -293 387 -256 245 -566 383 -918 411 -53 4 -94 4 -92 0 3 -4 -10 -8
-28 -7 -27 0 -30 2 -13 9 24 10 21 10 -110 -2z m375 -54 c522 -85 975 -477
1140 -984 67 -205 88 -472 55 -680 -93 -571 -504 -1027 -1065 -1184 -177 -49
-427 -60 -622 -27 -610 105 -1088 583 -1194 1196 -22 128 -22 347 -1 475 79
467 373 862 800 1076 267 135 575 179 887 128z"/>
<path d="M1280 2915 c-590 -94 -1057 -540 -1185 -1135 -22 -103 -31 -353 -16
-465 82 -622 540 -1105 1166 -1232 134 -27 404 -24 542 5 573 123 1008 559
1124 1125 162 798 -384 1580 -1191 1702 -116 18 -326 18 -440 0z m338 -5 c195
-17 360 -63 523 -146 259 -130 503 -374 634 -635 41 -81 107 -278 126 -374 21
-108 19 -428 -4 -535 -42 -194 -127 -393 -235 -545 -73 -102 -235 -264 -337
-337 -148 -105 -348 -192 -535 -233 -118 -26 -372 -31 -505 -10 -300 46 -561
180 -781 399 -350 349 -491 830 -385 1311 130 594 648 1050 1256 1105 119 11
121 11 243 0z"/>
<path d="M1368 2873 c-34 -3 -48 -8 -48 -19 0 -11 4 -12 19 -3 33 22 49 5 53
-56 2 -42 -1 -59 -12 -67 -12 -8 -11 -8 3 -4 10 3 28 6 40 6 16 0 18 3 9 9 -7
4 -16 33 -19 63 -5 46 -3 56 12 62 10 3 24 1 31 -5 11 -9 14 -8 14 5 0 17 -1
17 -102 9z"/>
<path d="M1505 2855 c-43 -42 -28 -103 28 -124 53 -20 99 15 99 75 0 68 -78
99 -127 49z m89 -7 c32 -46 13 -108 -32 -108 -39 0 -52 17 -52 65 0 23 5 46
12 53 19 19 55 14 72 -10z"/>
<path d="M1667 2859 c11 -11 0 -89 -17 -120 -7 -13 -4 -18 16 -22 24 -4 35 8
13 15 -12 4 -2 98 10 98 3 0 24 -31 46 -68 l39 -67 13 60 c7 33 17 68 23 78 9
14 6 17 -17 17 -19 0 -24 -3 -15 -9 11 -6 12 -19 5 -52 l-9 -44 -33 53 c-30
47 -56 72 -77 72 -5 0 -3 -5 3 -11z"/>
<path d="M1227 2853 c-22 -3 -26 -7 -18 -17 6 -7 15 -37 21 -66 8 -41 7 -56
-2 -63 -9 -6 -4 -7 12 -3 14 3 35 6 47 6 24 0 53 24 52 43 0 7 -7 2 -16 -10
-8 -13 -25 -23 -38 -23 -19 0 -23 8 -32 58 -7 38 -8 61 -1 70 6 6 9 11 7 11
-2 -1 -17 -4 -32 -6z"/>
<path d="M1860 2826 c14 -17 -20 -126 -39 -126 -9 -1 9 -10 39 -20 48 -18 56
-18 69 -5 13 13 10 14 -21 9 -41 -7 -52 4 -42 41 7 29 16 31 37 10 13 -12 15
-12 20 3 3 14 -2 18 -17 18 -16 -1 -20 4 -18 23 3 31 3 31 29 25 12 -4 24 -13
26 -23 4 -12 5 -11 6 4 1 17 -9 24 -49 36 -29 9 -46 11 -40 5z"/>
<path d="M1110 2820 c-14 -4 -20 -8 -13 -9 14 -1 47 -105 40 -125 -6 -15 39
-10 49 5 3 5 0 8 -7 7 -18 -4 -52 114 -36 124 15 10 0 9 -33 -2z"/>
<path d="M1018 2789 c-14 -8 -18 -23 -18 -71 l0 -61 -44 41 c-35 32 -49 39
-68 34 -16 -4 -18 -7 -7 -10 16 -3 52 -109 43 -124 -11 -17 -38 -6 -90 38 -64
55 -73 47 -49 -45 9 -34 13 -67 9 -73 -5 -8 -1 -9 10 -5 10 4 20 7 22 7 2 0 4
5 4 11 0 5 -4 8 -9 5 -19 -12 -21 28 -2 48 17 16 22 17 36 6 9 -7 14 -19 11
-25 -2 -7 18 0 44 14 27 14 45 28 40 31 -10 6 -42 90 -35 90 2 0 23 -18 47
-40 l43 -39 5 66 5 66 22 -45 c16 -33 19 -48 10 -57 -7 -7 -1 -7 20 1 24 9 29
14 19 22 -7 6 -24 32 -38 58 -19 33 -23 49 -15 57 14 14 8 14 -15 0z m-205
-167 c17 -19 14 -32 -9 -32 -6 0 -14 11 -16 25 -6 30 3 32 25 7z"/>
<path d="M2006 2776 c6 -16 -40 -112 -57 -118 -6 -2 1 -9 17 -16 22 -11 25
-11 17 0 -8 10 -5 25 12 58 26 50 25 51 54 -50 l18 -65 31 68 c21 45 36 66 44
62 7 -4 4 1 -6 9 -23 18 -46 22 -29 5 8 -8 6 -22 -6 -50 -9 -21 -18 -39 -21
-39 -3 0 -14 29 -24 65 -11 40 -26 70 -37 76 -14 7 -17 6 -13 -5z"/>
<path d="M1265 2680 c-492 -104 -858 -479 -951 -975 -24 -132 -15 -375 19
-505 141 -537 621 -910 1172 -910 309 0 600 117 830 332 187 174 329 449 364
702 90 643 -349 1250 -983 1361 -124 21 -336 19 -451 -5z m441 -5 c524 -92
920 -509 985 -1040 16 -123 5 -298 -25 -415 -61 -242 -162 -417 -338 -586
-212 -204 -467 -315 -758 -330 -687 -37 -1260 504 -1260 1189 0 198 39 364
127 542 61 122 120 204 222 305 177 176 370 279 616 330 115 23 311 26 431 5z"/>
<path d="M1336 2669 c-80 -12 -195 -44 -284 -80 -81 -32 -217 -108 -208 -116
3 -3 17 4 33 15 47 33 168 91 247 117 136 46 212 58 371 59 156 1 254 -13 378
-55 71 -24 199 -80 194 -86 -2 -2 -46 3 -98 11 -330 53 -685 37 -1002 -43 -65
-16 -124 -28 -130 -25 -18 6 -153 -111 -232 -204 -364 -422 -379 -1045 -35
-1491 492 -636 1469 -602 1915 69 93 138 146 266 181 432 23 111 23 342 0 451
-77 359 -293 648 -606 815 -220 118 -487 166 -724 131z m495 -129 c160 -17
285 -45 331 -75 l40 -27 -4 -70 c-4 -67 -5 -71 -43 -102 -25 -22 -34 -35 -27
-40 7 -4 12 -2 12 6 0 7 14 21 30 30 19 11 33 28 36 46 5 24 14 32 46 41 22 7
41 11 43 9 1 -2 5 -26 9 -54 4 -36 3 -54 -6 -61 -22 -17 -102 -35 -143 -31
-39 3 -40 4 -43 47 l-3 44 30 -6 c50 -10 35 10 -16 22 -295 69 -704 89 -933
46 -153 -28 -378 -86 -397 -102 -17 -14 -17 -14 2 -8 151 54 387 102 567 116
198 15 488 -6 695 -51 49 -11 51 -12 44 -38 -20 -70 24 -98 122 -77 79 16 110
32 103 50 -2 7 -8 31 -12 52 l-6 38 45 -44 c101 -97 209 -277 261 -432 81
-243 77 -546 -10 -777 -144 -384 -467 -661 -866 -743 -130 -26 -335 -28 -453
-4 -248 51 -455 164 -626 342 -370 386 -432 962 -154 1422 25 42 59 92 75 111
l29 35 -9 -34 c-5 -19 -9 -35 -7 -36 14 -10 100 -26 112 -22 21 9 19 -1 -11
-37 -36 -43 -111 -165 -125 -201 -6 -16 -29 -70 -50 -118 -21 -48 -39 -96 -39
-106 0 -9 -25 -90 -55 -179 -30 -89 -55 -170 -54 -180 0 -9 24 53 53 138 28
85 56 164 60 175 5 11 10 32 11 46 3 31 53 147 73 172 17 20 40 24 25 5 -16
-22 -66 -113 -57 -105 5 5 32 45 59 90 28 44 56 83 64 85 18 6 -48 -114 -109
-198 -25 -36 -45 -70 -43 -76 2 -6 -8 -35 -22 -65 -13 -30 -25 -61 -25 -69 0
-8 21 32 45 90 25 58 59 121 75 140 34 40 32 31 -32 -100 -74 -153 -147 -334
-164 -405 -10 -44 9 -20 30 38 10 26 24 47 32 47 16 0 70 70 90 116 18 42 129
156 121 123 -4 -13 -10 -54 -13 -90 -5 -54 -4 -67 8 -72 12 -4 22 14 44 78 16
46 30 82 32 81 1 -2 -8 -48 -21 -102 -14 -55 -30 -128 -37 -164 -6 -36 -20
-110 -30 -165 l-19 -100 4 145 c2 80 7 161 10 180 5 35 5 35 -5 5 -6 -16 -15
-94 -21 -172 -9 -112 -9 -146 1 -158 7 -8 17 -12 23 -8 7 4 8 0 3 -13 -22 -52
-13 -52 14 1 64 125 172 357 167 361 -4 4 -45 -76 -129 -259 -23 -48 -43 -85
-45 -83 -3 2 3 44 12 92 13 68 23 95 45 121 16 18 32 48 36 67 3 20 16 41 29
50 14 9 30 40 45 85 12 39 28 71 34 71 7 0 24 24 39 53 l27 52 -6 -55 c-3 -30
-14 -71 -24 -92 -10 -20 -24 -55 -30 -78 -13 -47 -5 -89 13 -71 15 15 32 14
19 -1 -5 -7 -17 -38 -26 -69 -12 -39 -28 -67 -57 -95 -47 -45 -88 -120 -118
-218 -23 -75 -27 -131 -10 -142 6 -3 9 -15 6 -25 -4 -16 0 -19 28 -19 18 0 38
-7 45 -15 7 -8 21 -15 31 -15 31 0 31 -18 -1 -41 -31 -24 -41 -59 -15 -59 15
0 31 -14 72 -63 17 -20 32 -27 57 -27 46 0 51 12 17 38 -18 13 -31 34 -35 57
-9 46 0 59 27 40 28 -19 47 -19 62 2 14 19 35 10 35 -16 0 -9 5 -22 12 -29 15
-15 54 -16 63 -2 4 6 17 4 35 -5 16 -8 36 -15 45 -15 13 0 15 -6 10 -28 -7
-35 6 -47 60 -55 85 -13 131 -32 165 -68 21 -22 66 -50 111 -69 67 -28 81 -31
108 -22 21 8 40 8 57 2 49 -19 128 -12 167 14 19 13 37 22 40 20 2 -3 75 29
161 71 143 69 159 79 172 111 14 33 14 38 -3 56 -37 41 -50 41 -105 -1 -29
-21 -79 -53 -110 -71 -55 -30 -58 -31 -58 -12 0 12 4 24 10 27 20 12 9 31 -25
44 l-35 12 81 42 c108 55 112 64 74 175 -26 75 -30 102 -30 195 0 108 0 109
26 123 15 7 29 10 33 7 13 -13 6 -82 -9 -91 -12 -6 -14 -14 -6 -33 l10 -24 0
25 c1 19 4 21 13 12 8 -8 14 -57 16 -140 6 -186 6 -186 22 -199 8 -6 13 -13
10 -15 -3 -2 -24 -13 -48 -26 -35 -19 -46 -21 -65 -11 -21 11 -21 11 -5 -7 17
-18 20 -17 73 10 55 28 65 42 44 63 -8 8 -12 62 -13 152 l-2 140 26 -6 c36 -8
38 -10 33 -37 -3 -13 5 -46 18 -72 18 -39 23 -67 24 -139 1 -81 3 -90 20 -94
11 -2 25 -7 30 -11 6 -4 24 -11 41 -14 23 -5 34 -2 48 13 20 22 14 41 -13 41
-36 0 -51 42 -51 143 0 52 -5 120 -12 152 l-11 59 40 35 c22 20 44 45 50 56
17 32 9 339 -11 404 -19 63 -21 107 -5 117 16 9 69 125 69 150 0 11 12 31 26
45 14 13 35 41 46 63 l19 38 -21 20 -22 20 -27 -26 c-24 -23 -29 -25 -34 -12
-13 33 -24 14 -35 -61 -11 -70 -23 -95 -69 -153 -2 -2 -26 19 -52 48 l-48 52
-65 0 c-71 0 -85 10 -73 54 5 16 4 18 -4 6 -8 -12 -13 -12 -23 -2 -9 9 -9 12
0 12 18 0 15 26 -8 70 -20 38 -38 56 -26 25 3 -8 1 -15 -5 -15 -6 0 -7 -5 -4
-11 4 -5 9 -24 12 -41 2 -17 11 -38 20 -46 38 -39 38 -88 0 -119 -12 -10 -22
-24 -22 -30 0 -7 -4 -13 -10 -12 -5 1 -9 5 -8 9 1 4 -4 14 -12 20 -18 15 -20
43 -3 38 7 -3 23 8 35 23 31 36 29 49 -2 15 -34 -37 -57 -33 -94 17 -12 15
-11 20 5 33 17 14 17 15 2 10 -10 -3 -18 -1 -18 4 0 6 5 10 12 10 6 0 9 3 6 6
-4 3 -16 1 -27 -6 -18 -9 -21 -8 -21 8 0 10 -5 23 -12 30 -22 22 75 102 124
102 9 0 9 -3 -2 -11 -13 -9 -13 -10 0 -6 24 7 49 -11 65 -46 9 -18 23 -44 33
-59 14 -24 15 -31 4 -49 -11 -18 -11 -20 0 -17 17 6 23 65 7 84 -8 9 -8 18 -2
27 6 6 13 30 16 53 6 35 3 44 -18 64 -15 14 -25 35 -25 52 0 16 -7 31 -15 34
-8 4 -13 10 -10 14 3 5 -9 5 -27 0 -18 -5 -49 -8 -68 -8 -24 1 -54 -11 -95
-36 -46 -28 -66 -35 -88 -30 -24 5 -35 -1 -80 -49 -39 -40 -66 -58 -107 -72
-30 -10 -73 -26 -95 -36 -21 -10 -42 -16 -45 -14 -4 2 -49 8 -102 14 -105 10
-143 26 -190 74 -29 31 -30 31 -14 4 10 -15 15 -38 12 -50 -3 -12 -3 -16 0 -9
8 17 35 15 63 -4 21 -15 23 -22 18 -67 -5 -41 -4 -47 6 -33 11 15 14 14 30
-14 16 -27 17 -37 7 -83 -7 -29 -11 -76 -9 -105 2 -29 1 -52 -3 -52 -14 0 -23
27 -25 75 0 28 -2 57 -3 65 -1 8 1 26 4 40 4 14 3 18 0 10 -14 -32 -26 -41
-40 -29 -11 9 -14 8 -14 -1 0 -6 8 -14 19 -17 13 -3 17 -11 14 -26 -4 -18 -3
-19 6 -7 9 13 11 12 11 -5 0 -31 -11 -65 -20 -60 -5 3 -6 15 -4 28 4 20 4 20
-5 2 -9 -22 -9 -22 -24 50 -4 16 -5 15 -6 -5 -1 -24 -2 -24 -23 10 -12 19 -34
60 -49 90 -17 33 -41 63 -59 73 -29 17 -33 18 -55 3 -14 -9 -25 -12 -25 -7 0
15 20 25 75 37 43 10 46 12 18 13 -38 1 -41 10 -13 36 10 9 24 33 30 51 13 39
90 95 155 113 55 15 56 15 49 -16 l-6 -28 16 25 c27 44 28 50 16 65 -9 10 -25
13 -58 9 -37 -4 -43 -3 -30 6 10 6 31 12 48 13 16 1 30 6 30 11 0 4 -12 6 -27
3 -16 -3 -45 -1 -65 5 -31 9 -45 8 -78 -7 -48 -21 -51 -31 -10 -31 22 0 27 3
19 12 -13 16 13 25 51 17 25 -5 28 -8 18 -20 -7 -9 -21 -19 -33 -23 -12 -5 3
-7 42 -6 33 0 59 4 56 9 -7 12 12 8 25 -5 19 -19 14 -23 -28 -22 -22 1 -43 -2
-46 -7 -3 -5 -21 -9 -40 -9 -21 0 -33 -4 -29 -10 3 -6 -4 -14 -17 -19 -13 -6
-18 -10 -13 -11 12 -1 -53 -30 -67 -30 -5 0 -6 5 -3 10 3 6 1 10 -5 10 -7 0
-10 -7 -6 -15 3 -8 1 -15 -4 -15 -10 0 -14 14 -11 38 1 6 -3 12 -8 12 -6 0 -9
-35 -7 -88 l2 -88 -28 1 c-16 0 -33 7 -38 15 -25 39 -1 134 41 164 21 14 25
14 47 0 13 -9 26 -13 29 -10 3 3 -11 13 -30 22 -28 14 -37 24 -39 48 -3 28 -7
31 -38 33 -34 1 -34 1 -5 -5 43 -10 48 -56 8 -91 -15 -14 -29 -37 -31 -51 -1
-13 -11 -34 -22 -45 -11 -12 -20 -27 -20 -33 0 -7 -4 -12 -10 -12 -5 0 -14
-10 -21 -21 -8 -15 -8 -19 0 -15 27 17 7 -21 -30 -56 -40 -38 -67 -46 -38 -11
8 10 21 30 28 45 7 14 26 40 42 58 21 22 27 38 23 54 -4 18 6 35 45 78 28 31
51 60 51 64 0 5 -5 2 -10 -6 -5 -8 -17 -16 -27 -17 -48 -5 -93 -27 -93 -45 0
-6 11 -1 25 12 14 13 25 18 25 12 0 -12 -92 -83 -99 -77 -2 3 4 16 13 31 27
40 13 38 -20 -4 -26 -33 -64 -52 -64 -32 0 13 96 98 146 130 27 16 43 30 38
30 -6 0 -42 -22 -80 -48 l-69 -48 -58 9 -57 9 6 37 c10 53 33 84 58 77 12 -3
29 -6 39 -6 12 0 17 -8 17 -28 0 -28 16 -52 34 -52 6 0 5 5 -2 12 -7 7 -12 42
-12 88 0 74 1 76 34 103 19 15 41 27 48 27 7 0 58 11 113 25 117 28 252 52
362 64 115 12 406 13 524 1z m439 -160 c0 -4 -11 -12 -25 -18 -24 -11 -25 -10
-25 23 l0 35 25 -16 c14 -9 25 -20 25 -24z m-1540 -40 c0 -31 -13 -38 -40 -20
-13 9 -12 13 9 30 30 26 31 25 31 -10z m1289 -119 c9 -6 11 -16 6 -32 -6 -18
-1 -28 25 -49 26 -21 31 -31 25 -46 -5 -10 -10 -26 -10 -34 -1 -8 -3 -21 -4
-27 -2 -22 -20 -14 -27 12 -8 32 -49 65 -82 65 -28 0 -87 -34 -102 -58 -8 -15
-9 -14 -10 5 0 11 16 40 35 63 19 23 35 46 35 51 0 5 6 9 14 9 18 0 29 -27 13
-33 -7 -2 -2 -2 11 0 13 2 22 -2 22 -9 1 -7 10 -2 20 11 11 13 20 35 19 50 -1
23 -2 23 -9 -7 -11 -45 -17 -49 -43 -24 -27 25 -57 29 -57 7 0 -8 -16 -30 -35
-49 -19 -20 -35 -45 -35 -56 0 -34 -28 -79 -60 -95 -29 -15 -60 -51 -60 -70 1
-5 8 3 16 18 18 33 35 31 46 -4 5 -16 6 -11 3 16 l-5 40 22 -53 c25 -64 37
-62 13 3 -17 44 -17 46 1 60 23 17 32 6 42 -58 6 -36 13 -45 45 -60 20 -10 37
-24 37 -32 0 -7 7 -18 15 -25 22 -19 8 -30 -37 -30 l-40 0 7 -57 c6 -58 6 -58
-35 -98 -49 -48 -58 -45 -117 45 -24 35 -61 82 -83 105 -37 38 -56 71 -27 47
8 -7 19 -5 36 9 13 10 18 20 12 20 -6 1 -15 2 -20 3 -6 0 -16 7 -22 14 -20 19
-26 15 -31 -18 -4 -24 4 -38 40 -77 24 -26 56 -66 70 -88 14 -22 37 -52 50
-66 14 -16 22 -36 20 -49 -3 -19 -10 -22 -60 -25 -32 -2 -60 1 -64 6 -14 24
-86 59 -120 59 -21 0 -61 8 -90 17 -50 15 -55 15 -72 0 -25 -23 -42 -21 -80
11 -30 24 -33 32 -33 82 0 30 4 77 9 104 6 27 8 55 5 62 -3 10 12 11 69 7 92
-7 165 13 239 66 30 20 71 48 92 60 l37 23 0 -39 c-1 -36 -2 -37 -15 -19 -8
11 -15 15 -15 9 0 -7 4 -15 10 -18 5 -3 9 -24 8 -46 -2 -45 2 -50 45 -65 21
-7 33 -18 35 -32 4 -23 17 -26 62 -13 18 5 21 9 12 15 -8 5 -19 3 -25 -3 -17
-17 -37 -13 -37 8 0 13 -13 24 -41 35 l-42 17 8 72 c14 140 14 147 -1 147 -8
0 -14 -7 -14 -15 0 -9 -10 -20 -22 -25 -16 -6 -18 -9 -7 -9 9 -1 22 6 29 14
15 19 23 14 14 -9 -3 -9 -14 -16 -25 -16 -10 0 -22 -6 -26 -12 -9 -15 -103
-78 -148 -101 -95 -47 -218 -46 -267 3 -15 16 -28 37 -28 48 0 22 5 22 149 2
55 -8 69 -6 102 10 21 11 44 20 51 20 31 0 134 60 153 88 27 43 62 58 86 36
22 -20 84 -14 108 11 15 15 13 15 -21 0 -43 -17 -68 -19 -68 -5 0 6 6 10 13
10 7 0 30 12 52 27 26 18 59 30 95 34 30 3 60 7 65 7 6 1 16 -2 24 -7z m-1154
-57 c-35 -47 -39 -56 -36 -83 2 -7 -15 -34 -36 -60 -42 -51 -66 -97 -58 -112
4 -5 1 -17 -5 -26 -9 -15 -10 -14 -5 7 6 29 6 29 -57 -71 -21 -33 -41 -59 -46
-59 -5 0 -9 13 -9 30 0 17 5 27 10 23 6 -4 8 1 4 11 -4 10 -3 15 3 11 5 -3 14
11 19 32 12 42 56 113 71 113 14 0 13 -2 -16 -54 -14 -25 -23 -46 -21 -46 10
0 57 92 51 101 -3 5 -1 9 4 9 6 0 12 10 15 23 4 12 13 31 22 42 17 20 17 20
11 0 -5 -17 -3 -17 11 3 9 13 18 35 19 50 l3 26 -17 -26 c-61 -91 -72 -107
-82 -113 -17 -11 -11 6 20 55 29 45 80 100 80 87 0 -4 16 11 36 33 49 54 53
51 9 -6z m163 -59 c1 -1 -3 -14 -9 -29 -16 -34 -33 -28 -37 13 -3 30 -2 32 20
26 13 -4 24 -9 26 -10z m-299 -46 c-25 -49 -125 -159 -145 -159 -11 0 -11 5
-2 28 21 47 89 152 99 152 6 0 8 4 5 8 -2 4 4 9 15 9 22 2 18 -8 -14 -44 -11
-13 -16 -23 -11 -23 5 0 22 19 38 41 36 51 44 44 15 -12z m181 -63 c9 -6 16
-24 17 -39 0 -16 -2 -26 -5 -23 -3 3 -12 0 -20 -6 -13 -11 -14 -8 -8 22 7 35
7 35 -8 10 -8 -14 -13 -33 -10 -43 6 -19 -11 -47 -28 -47 -10 0 -7 27 7 65 4
11 -3 5 -15 -14 -16 -25 -24 -31 -33 -22 -15 15 18 85 37 78 8 -3 18 6 26 21
12 27 12 27 -9 8 -25 -23 -26 -17 -5 32 l16 37 12 -34 c7 -18 18 -38 26 -45z
m1101 -29 c-11 -10 -12 -8 -7 10 4 12 2 24 -4 28 -5 3 -10 14 -9 23 0 10 7 4
17 -16 13 -26 13 -34 3 -45z m435 47 c-4 -12 -2 -15 9 -11 8 4 17 2 20 -3 4
-6 -1 -10 -9 -10 -8 0 -18 -5 -22 -12 -5 -8 -2 -9 10 -5 12 5 15 3 9 -7 -21
-35 -64 -76 -80 -77 -10 0 -13 -3 -5 -6 6 -2 12 -11 12 -18 0 -26 -40 -120
-63 -149 l-23 -28 -77 35 -78 36 20 -28 c17 -23 19 -38 14 -80 -3 -29 -14 -62
-24 -74 -15 -19 -21 -20 -38 -9 -13 7 -21 8 -21 2 0 -5 -7 -10 -16 -10 -12 0
-15 7 -12 25 3 13 1 22 -3 19 -5 -3 -9 -13 -9 -24 0 -12 -7 -18 -22 -18 -13 0
-37 -3 -54 -6 -25 -4 -34 -1 -43 17 -11 20 -11 20 -7 -8 l5 -30 -14 30 c-8 17
-14 42 -15 56 0 14 -4 39 -9 55 -5 16 -12 44 -15 62 -5 27 -2 32 13 32 11 0
29 -15 41 -35 26 -43 36 -46 15 -5 -20 38 -19 43 5 35 25 -8 50 10 50 35 0 9
9 25 20 35 11 10 20 24 20 32 0 7 7 13 15 13 21 0 19 -10 -7 -38 -24 -27 -7
-21 27 8 33 29 62 33 95 14 29 -18 48 -44 31 -44 -5 0 -14 7 -21 15 -7 8 -21
15 -32 15 -31 0 -138 -51 -132 -62 4 -6 10 -5 15 3 20 33 21 -8 2 -74 -12 -39
-20 -73 -18 -75 5 -5 45 126 45 149 0 15 26 39 43 39 3 0 8 -25 12 -57 4 -31
11 -66 16 -77 8 -17 9 -15 5 10 -21 134 -21 134 7 134 14 0 29 -5 32 -10 4 -6
24 -18 46 -27 21 -8 39 -19 39 -24 0 -20 17 -6 48 41 24 34 38 71 47 122 7 40
14 60 14 45 l1 -28 31 36 c34 38 45 44 35 19z m-1412 -84 c14 -17 29 -45 34
-63 5 -18 31 -63 58 -100 52 -72 176 -172 272 -221 39 -20 52 -32 48 -42 -3
-9 -6 -23 -6 -32 0 -15 -2 -15 -10 -2 -8 12 -10 12 -11 -5 0 -20 0 -20 -9 0
-7 17 -9 17 -9 3 -1 -10 -6 -18 -11 -18 -6 0 -9 3 -8 8 1 4 -5 21 -14 38 -13
24 -32 37 -80 54 -119 44 -176 80 -233 147 -30 36 -55 68 -55 73 0 5 -8 11
-17 14 -18 6 -53 77 -53 108 0 71 58 92 104 38z m858 -47 c12 -15 11 -15 -9
-4 -17 9 -23 20 -22 44 l1 32 8 -28 c5 -16 15 -35 22 -44z m-1114 -54 c-27
-57 -40 -69 -53 -49 -3 6 -2 10 2 10 9 0 47 99 40 106 -2 3 -12 -15 -21 -38
-20 -51 -52 -96 -62 -85 -9 8 15 85 29 94 6 4 8 -1 4 -11 -12 -30 10 -8 23 24
8 19 18 29 26 26 8 -3 14 0 14 6 0 7 6 4 13 -6 11 -15 9 -27 -15 -77z m117 64
c-5 -14 -4 -15 6 -6 10 10 18 -4 39 -67 25 -75 28 -116 21 -244 -1 -4 -8 -5
-17 -2 -10 4 -14 1 -12 -6 11 -32 36 -7 91 92 l19 35 -20 -25 c-23 -27 -23
-28 -41 50 -11 48 -6 66 11 37 5 -10 23 -33 38 -51 l29 -33 -65 -112 c-36 -62
-63 -115 -60 -118 2 -3 32 45 66 106 35 61 67 111 72 111 21 0 18 -36 -9 -113
-25 -69 -34 -82 -54 -85 -13 -2 -31 -5 -39 -8 -13 -4 -13 -6 0 -14 19 -12 6
-24 -42 -39 -20 -7 -42 -18 -48 -26 -7 -8 -16 -13 -20 -10 -10 6 7 97 21 110
9 7 10 3 5 -17 -3 -16 -3 -28 1 -28 9 0 44 239 42 285 -1 21 -3 24 -6 10 -8
-36 -66 -155 -75 -155 -4 0 -6 12 -3 28 8 41 -7 6 -47 -105 -30 -88 -48 -115
-48 -75 0 9 9 51 20 91 12 40 19 75 17 77 -5 5 -30 -83 -58 -201 -21 -90 -49
-145 -49 -97 0 13 11 74 25 135 37 169 36 162 44 149 5 -8 13 3 21 30 11 34
15 38 18 21 2 -13 7 -23 12 -23 4 0 6 -10 3 -22 -2 -13 5 -2 17 24 21 45 50
71 50 45 1 -7 7 3 16 22 16 38 12 55 -6 22 -15 -30 -32 -27 -20 4 11 29 46 66
54 58 3 -4 6 7 6 23 -1 28 -1 28 -15 10 -8 -11 -15 -23 -15 -28 0 -4 -6 -8
-14 -8 -9 0 -13 8 -9 23 4 19 2 18 -12 -5 -29 -52 -45 -31 -24 33 6 19 13 40
15 48 7 23 33 -7 27 -32 -3 -16 -2 -18 5 -9 5 8 13 12 18 10 5 -1 10 11 12 27
2 22 0 26 -7 15 -5 -8 -13 -11 -17 -8 -7 8 3 58 12 58 3 0 3 -8 -1 -17z m-66
-61 c-16 -43 -40 -82 -49 -82 -14 0 -13 8 6 66 22 65 36 82 45 57 3 -10 3 -28
-2 -41z m805 -4 c-8 -12 -34 11 -34 30 0 13 3 12 20 -3 11 -10 17 -22 14 -27z
m-938 -67 c13 12 24 19 24 15 0 -16 -71 -142 -107 -191 -48 -64 -56 -40 -15
42 38 75 62 133 56 133 -3 0 -27 -46 -53 -102 -30 -62 -51 -96 -55 -87 -3 8
-3 4 0 -8 5 -22 -53 -150 -83 -185 -28 -32 -32 -9 -8 51 43 111 138 311 148
311 5 0 21 9 35 21 l27 21 3 -22 4 -22 24 23z m64 -10 c0 -20 -79 -115 -80
-96 0 19 38 86 57 101 23 17 23 17 23 -5z m46 -33 c-7 -35 -46 -117 -60 -125
-5 -4 -6 16 -2 52 4 41 13 65 29 81 31 31 40 29 33 -8z m34 -41 c-28 -75 -45
-85 -37 -23 5 32 14 54 29 66 13 10 24 17 26 15 1 -1 -7 -28 -18 -58z m1386
28 c3 -8 12 -85 19 -172 l14 -158 -5 145 c-3 80 -8 153 -11 164 -3 12 -1 17 8
14 10 -3 17 -37 24 -111 6 -58 12 -108 15 -111 3 -2 2 30 -2 72 -15 171 -4
186 32 40 l23 -93 -26 -39 c-21 -30 -24 -42 -16 -57 14 -26 16 -24 11 10 -2
16 1 31 6 35 6 4 11 -14 14 -45 2 -41 -1 -54 -14 -63 -24 -14 -23 -26 7 -66
14 -19 25 -42 25 -52 0 -20 -90 -109 -102 -102 -13 8 -9 59 6 89 12 23 12 35
-1 88 -8 34 -16 91 -17 127 -2 50 -9 75 -29 106 -17 28 -22 45 -16 55 5 8 9
42 9 77 0 58 13 82 26 47z m-1237 -73 c1 -13 -3 -20 -9 -17 -5 3 -10 25 -9 48
1 36 2 38 9 17 4 -14 8 -35 9 -48z m-290 -83 c-18 -54 -36 -99 -41 -99 -4 0
-8 3 -8 8 1 20 21 150 27 167 6 20 6 20 14 0 8 -20 8 -20 8 1 1 24 24 51 29
34 3 -7 -11 -56 -29 -111z m1193 28 c-2 -34 -5 -63 -7 -65 -2 -2 -26 4 -54 13
-38 12 -51 22 -51 36 0 22 20 25 39 7 10 -11 12 -10 10 2 -3 16 51 83 60 74 3
-3 4 -33 3 -67z m-459 38 c20 -8 55 -15 78 -15 42 0 114 -33 123 -56 3 -8 -25
-33 -69 -63 l-74 -50 -6 30 c-9 42 -48 84 -94 102 -50 21 -57 32 -29 51 27 20
27 19 71 1z m-270 -29 l29 -21 -54 -7 c-29 -3 -54 -5 -56 -4 -1 2 3 17 9 34
12 34 23 34 72 -2z m780 -48 c20 3 21 -2 6 -31 -16 -29 -14 -28 -33 -21 -12 4
-16 19 -16 53 0 44 1 45 13 21 8 -15 20 -24 30 -22z m-705 -4 c2 -14 -6 -24
-23 -32 -32 -15 -48 -15 -40 -2 10 16 -7 12 -27 -7 -17 -15 -21 -15 -29 -3 -8
13 -11 13 -23 -2 -14 -19 -46 -24 -46 -8 0 6 5 10 10 10 6 0 10 6 10 14 0 22
22 34 77 41 44 5 52 4 56 -12 4 -14 5 -13 6 5 1 28 25 25 29 -4z m897 12 c6
-2 -23 -9 -63 -15 -40 -7 -80 -10 -90 -5 -15 6 -15 8 3 12 11 2 24 7 28 11 7
7 94 4 122 -3z m45 -28 c12 -25 18 -32 15 -18 -3 16 2 11 14 -15 19 -39 19
-55 0 -55 -6 0 -7 10 -4 23 7 21 6 21 -7 3 -21 -26 -38 -12 -38 31 0 20 -2 34
-5 31 -8 -8 -8 -80 0 -202 5 -76 4 -107 -3 -102 -6 3 -13 2 -17 -4 -3 -5 -14
-10 -24 -10 -16 0 -19 15 -28 118 l-11 117 2 -112 c1 -62 -1 -113 -4 -113 -23
1 -30 25 -33 115 l-3 100 -2 -108 c-2 -106 -2 -108 -28 -117 -14 -6 -29 -8
-33 -6 -3 2 -4 41 0 85 4 66 10 85 27 102 13 11 20 24 17 29 -6 10 30 50 45
50 6 0 10 -5 10 -11 0 -8 4 -8 14 0 7 6 20 9 28 6 9 -4 18 1 22 10 5 13 1 15
-14 10 -16 -5 -20 -2 -21 17 -1 22 -2 19 -15 -20 -2 -8 -9 -10 -16 -6 -24 15
-48 11 -48 -8 0 -22 -7 -23 -26 -4 -8 8 -11 22 -8 33 6 16 5 15 -9 -2 -18 -23
-36 -12 -20 13 6 9 19 15 29 14 36 -7 164 20 164 34 0 25 10 15 30 -28z m-831
-13 c7 -7 14 -24 15 -37 1 -28 26 -34 67 -18 24 10 28 17 23 34 -4 14 -3 18 4
11 5 -5 13 -21 17 -35 5 -19 4 -21 -4 -10 -6 8 -11 10 -11 4 0 -5 5 -15 10
-20 7 -7 -2 -21 -29 -42 -47 -38 -52 -39 -69 -12 -13 22 -36 33 -89 45 -21 4
-33 3 -33 -4 0 -6 15 -11 34 -11 34 0 86 -32 86 -53 0 -8 20 -12 58 -13 46 0
76 -9 154 -44 69 -32 98 -50 98 -62 0 -16 -6 -15 -57 6 -133 55 -203 78 -223
73 -14 -4 -28 2 -43 18 -13 14 -38 26 -62 29 l-40 5 43 -11 c23 -6 42 -16 42
-23 0 -15 55 -39 68 -31 13 8 262 -83 262 -95 0 -13 2 -13 -119 36 -61 25
-126 45 -146 45 -43 0 -75 15 -75 35 0 10 -16 16 -49 21 l-50 6 0 63 c0 39 6
70 14 81 8 11 15 27 15 36 0 16 3 16 38 2 20 -9 43 -22 51 -29z m501 -2 c36
-14 80 -30 98 -37 l33 -13 -144 -91 c-80 -51 -150 -92 -157 -92 -7 0 -49 18
-94 39 -45 22 -100 43 -123 47 l-42 6 111 81 c146 106 180 112 318 60z m-660
-99 l9 -69 -4 73 c-2 41 0 72 6 72 8 0 14 -65 12 -130 -3 -73 -16 -160 -23
-160 -5 0 -8 6 -6 13 3 6 7 39 10 72 5 47 3 56 -5 41 -6 -10 -11 -57 -11 -105
1 -47 1 -104 1 -126 0 -22 0 -69 0 -105 1 -65 19 -168 48 -270 12 -40 29 -67
60 -97 23 -24 48 -43 54 -43 6 0 1 9 -12 21 l-24 21 25 -6 c14 -3 32 -6 41 -6
9 0 19 -9 22 -20 4 -17 2 -20 -16 -15 -22 5 -22 5 0 -6 18 -9 21 -18 17 -38
-5 -24 -4 -25 9 -8 14 17 17 16 62 -3 52 -22 87 -27 40 -5 -16 7 -23 14 -15
14 20 0 79 -27 61 -28 -11 -1 -10 -4 4 -14 11 -9 15 -19 10 -28 -4 -8 2 -4 14
9 12 12 26 22 31 22 4 0 15 3 24 6 12 5 16 -1 16 -23 0 -23 -6 -31 -31 -40
-28 -11 -41 -8 -118 23 -47 19 -94 38 -103 41 -11 3 -18 15 -18 29 0 12 -5 26
-12 30 -7 4 -8 3 -4 -4 5 -9 -2 -11 -26 -7 -52 8 -159 40 -159 48 1 4 1 14 1
23 0 10 6 14 14 11 10 -4 4 14 -15 53 -16 32 -29 62 -29 66 0 4 -13 28 -29 53
-50 79 -57 170 -25 310 9 39 56 141 64 141 4 0 11 28 14 63 5 46 3 75 -9 111
-9 26 -14 55 -10 64 11 29 26 -3 35 -74z m-37 7 c22 -65 14 -115 -33 -215 -34
-72 -80 -272 -80 -348 0 -26 5 -79 12 -117 7 -39 9 -73 6 -76 -4 -4 -16 -1
-29 5 -21 12 -22 16 -16 124 3 61 11 128 17 149 6 22 9 41 7 44 -10 9 -37
-137 -37 -196 0 -48 -3 -61 -15 -61 -32 0 -5 173 46 294 34 82 30 104 -5 25
-34 -79 -65 -193 -72 -276 -4 -40 -10 -73 -15 -73 -4 0 -24 9 -43 21 -24 14
-36 28 -36 42 0 39 29 147 51 188 11 23 18 43 15 47 -15 14 -76 -166 -76 -225
0 -34 -16 -43 -37 -22 -8 8 -1 37 22 104 35 100 77 171 143 248 47 53 78 107
63 107 -5 0 -12 -9 -16 -19 -8 -27 -64 -101 -73 -99 -11 4 -169 -119 -175
-136 -13 -32 -28 -16 -22 22 17 104 36 141 110 216 81 83 130 144 123 152 -3
2 -13 -8 -23 -23 -10 -15 -53 -64 -95 -108 -100 -103 -121 -146 -134 -267 -5
-55 -42 -116 -59 -99 -15 15 16 153 52 226 21 42 58 88 121 150 85 84 130 140
130 161 0 5 -12 -9 -26 -31 l-25 -40 6 40 c6 36 26 65 47 65 4 0 8 8 8 19 0
14 12 20 53 28 84 17 90 15 110 -46z m837 20 c0 -5 2 -16 5 -23 4 -9 -5 -19
-22 -28 -15 -7 -23 -14 -17 -17 6 -2 9 -26 7 -61 -5 -77 -12 -104 -23 -97 -13
8 -13 135 0 135 6 0 10 4 10 10 0 5 -8 7 -17 4 -19 -6 -10 3 42 42 44 33 -17
-3 -142 -84 -73 -48 -130 -88 -127 -91 2 -3 10 1 16 7 26 26 26 26 36 -178 6
-102 10 -125 22 -125 12 0 16 18 18 90 1 50 -2 117 -7 150 -6 44 -7 21 -3 -82
3 -94 2 -143 -5 -143 -6 0 -12 55 -16 138 l-5 137 26 23 27 24 6 -24 c4 -13 8
-79 8 -148 1 -124 8 -159 30 -146 7 5 10 46 9 119 l-2 112 -6 -115 c-3 -63 -8
-108 -12 -100 -4 8 -8 82 -10 164 -2 109 -6 150 -16 154 -14 4 -7 22 9 22 6 0
7 -4 4 -10 -3 -5 -2 -10 4 -10 5 0 12 -21 14 -47 l3 -48 2 52 c1 28 6 54 11
57 10 6 25 -285 19 -374 l-3 -54 -55 -18 c-36 -11 -46 -17 -30 -17 14 -1 43 8
65 19 48 24 45 24 45 1 0 -14 -13 -24 -42 -35 -50 -19 -180 -47 -187 -41 -2 3
18 14 44 26 l49 22 -29 14 c-26 14 -33 14 -79 -5 -74 -30 -126 -34 -274 -23
-172 14 -179 16 -188 54 -13 53 -6 300 9 361 8 30 13 57 10 60 -3 3 -2 17 1
31 6 24 10 25 44 19 20 -3 47 -16 60 -27 13 -12 35 -27 50 -34 25 -12 23 -13
-23 -8 -27 3 -63 8 -79 11 l-29 6 7 -173 c7 -179 11 -209 26 -209 17 0 19 36
10 180 l-8 145 2 -148 c2 -81 -1 -150 -5 -153 -5 -3 -9 26 -9 64 0 38 -3 117
-7 175 -4 78 -3 107 5 107 7 0 12 -8 12 -17 0 -15 2 -15 9 -4 5 8 16 11 25 8
14 -5 16 -27 16 -144 0 -164 7 -213 28 -213 13 0 14 22 9 175 l-6 174 35 -1
34 -1 1 -81 c0 -45 4 -117 8 -161 4 -44 4 -84 -1 -89 -4 -6 -8 0 -9 15 -1 13
-5 83 -8 154 l-8 130 -1 -137 c-2 -147 8 -199 33 -178 10 8 13 25 10 53 -11
95 -12 296 -1 301 6 2 -2 5 -18 5 -20 1 -27 4 -20 11 7 7 21 7 42 -1 l32 -11
0 -158 c0 -158 9 -215 33 -208 16 6 21 164 8 268 -6 56 -7 34 -3 -92 3 -111 2
-168 -5 -168 -6 0 -13 21 -17 46 -7 56 -8 304 -1 304 3 0 21 -7 40 -14 l35
-15 0 -114 c0 -139 8 -207 25 -207 23 0 26 33 19 168 -4 72 -4 132 -1 132 2 0
17 -7 33 -14 15 -8 31 -13 34 -11 4 3 10 -19 14 -48 9 -80 7 -195 -4 -202 -6
-4 -10 32 -10 102 0 59 -4 113 -8 120 -4 6 -5 -44 -3 -110 1 -67 5 -124 7
-126 2 -2 11 -1 20 3 14 5 15 24 12 146 -2 107 0 140 10 140 6 0 12 5 12 10 0
14 -7 13 -35 -6 -15 -10 -25 -12 -25 -5 0 6 4 11 9 11 4 0 6 10 4 23 -3 19 16
35 139 114 144 93 158 101 158 84z m200 -11 c0 11 3 11 12 2 10 -10 47 -165
48 -201 0 -11 -3 -11 -14 -2 -11 10 -20 10 -36 1 -12 -6 -23 -10 -25 -8 -1 2
-5 55 -9 118 -6 104 -5 113 9 96 10 -14 15 -15 15 -6z m-1266 -79 c-6 -41 -37
-91 -54 -91 -10 0 24 106 41 127 17 20 20 11 13 -36z m995 -63 c2 -76 14 -98
52 -98 12 0 18 -10 21 -35 2 -19 0 -35 -5 -35 -5 0 -27 18 -49 40 -40 39 -40
39 -36 110 1 38 2 70 0 70 -1 0 -14 -7 -28 -16 -13 -9 -27 -14 -30 -12 -4 5
53 45 67 47 3 1 7 -32 8 -71z m421 26 c0 -14 -4 -23 -10 -19 -5 3 -10 15 -10
26 0 10 5 19 10 19 6 0 10 -12 10 -26z m-550 -44 c-14 -11 -29 -20 -35 -20 -5
0 1 9 15 20 14 11 30 20 35 20 6 0 -1 -9 -15 -20z m-437 -180 c3 -96 2 -161
-3 -145 -7 29 -14 332 -6 324 2 -2 6 -83 9 -179z m261 -17 c4 -81 3 -144 -2
-147 -11 -7 -22 99 -22 219 0 138 17 88 24 -72z m615 57 c0 -26 5 -50 11 -56
19 -19 34 -169 23 -233 -5 -33 -6 -58 -3 -56 4 3 18 -7 30 -20 13 -14 32 -25
42 -25 11 0 16 -5 13 -10 -4 -6 -11 -7 -17 -4 -6 4 -8 2 -4 -4 3 -6 2 -13 -4
-17 -5 -3 -10 -2 -10 4 0 6 -7 8 -15 4 -9 -3 -24 2 -34 11 -10 9 -20 13 -24
10 -14 -14 -27 7 -16 27 13 25 -5 152 -26 182 -15 22 -21 111 -9 141 3 9 11
13 18 9 6 -3 7 -2 3 3 -5 5 -14 9 -20 9 -13 0 -32 35 -43 79 -6 25 -4 27 13
22 10 -3 28 0 39 8 17 13 20 12 25 -12 4 -15 7 -47 8 -72z m-82 12 c13 -32 18
-61 14 -65 -11 -11 -46 -1 -66 19 -15 15 -21 85 -8 97 19 20 40 3 60 -51z
m-216 2 c7 -8 25 -22 40 -30 26 -13 27 -16 22 -68 -5 -44 0 -71 26 -145 33
-96 31 -129 -5 -149 -15 -9 -22 -2 -46 45 -15 31 -28 60 -28 66 0 6 -6 18 -14
26 -15 17 -30 271 -16 271 4 0 13 -7 21 -16z m-1010 -93 c-17 -21 -49 -78 -72
-127 -75 -164 -70 -156 -89 -139 -9 8 -29 15 -43 15 -15 0 -27 4 -27 9 0 28
96 144 170 208 47 40 87 72 88 73 2 0 -10 -17 -27 -39z m151 -158 c6 -43 0
-66 -13 -57 -12 7 -12 94 0 94 5 0 11 -17 13 -37z m666 -52 c9 -5 -14 -20 -70
-45 -46 -21 -104 -51 -130 -66 -42 -26 -78 -31 -78 -11 0 8 194 111 229 121
35 11 34 11 49 1z m-649 -42 c-15 -29 -29 -32 -29 -7 0 30 20 53 31 36 4 -7 3
-20 -2 -29z m868 -16 c20 -48 18 -52 -40 -78 -50 -23 -54 -24 -105 -9 -39 12
-60 13 -81 6 -20 -7 -32 -7 -40 1 -23 23 -9 35 52 46 100 19 163 40 178 58 13
15 12 15 -12 0 -22 -14 -189 -56 -226 -57 -30 0 -10 20 25 25 80 13 139 28
172 45 41 21 55 14 77 -37z m-613 27 c53 -7 131 -10 173 -8 l76 5 -34 -18
c-22 -12 -56 -18 -94 -19 -86 0 -239 20 -247 33 -9 15 1 30 16 24 7 -3 56 -11
110 -17z m-195 -92 c33 -75 30 -80 -34 -54 -43 18 -57 69 -29 110 21 33 25 29
63 -56z m251 46 c77 -5 97 -10 80 -16 -22 -8 -112 -5 -200 8 -24 3 -30 2 -21
-5 7 -5 51 -12 96 -16 l83 -7 -24 -24 c-14 -13 -27 -37 -31 -54 -4 -22 -10
-29 -20 -26 -8 4 -27 6 -41 6 -41 1 -60 21 -81 90 l-20 62 38 -6 c21 -3 84 -9
141 -12z m277 -80 c-1 -1 -22 -8 -47 -17 -25 -8 -84 -32 -133 -53 -48 -20 -90
-34 -94 -30 -15 15 -4 90 16 110 17 17 24 18 44 7 20 -11 32 -7 107 33 l84 45
12 -47 c7 -26 12 -47 11 -48z m-823 25 c-10 -16 20 -90 44 -110 l25 -19 -32 0
c-25 0 -36 8 -59 40 -15 21 -31 39 -37 40 -5 0 -17 5 -25 10 -24 15 26 57 62
52 15 -2 25 -8 22 -13z m999 -39 c32 -12 56 -25 52 -28 -6 -7 -192 -83 -274
-113 -52 -18 -57 -18 -97 -3 -23 9 -48 13 -54 9 -13 -8 -70 13 -70 25 0 5 14
2 31 -7 16 -8 33 -13 36 -10 3 4 -6 9 -21 13 -48 12 -47 12 189 105 108 42
118 43 208 9z m331 1 c23 -25 17 -60 -14 -82 -14 -10 -87 -48 -164 -84 -124
-59 -138 -63 -133 -43 4 13 -2 35 -14 55 -12 19 -19 43 -16 53 3 11 3 20 1 20
-2 0 -54 -20 -115 -45 -61 -25 -119 -45 -128 -44 -9 0 7 9 35 19 29 10 67 25
85 34 64 30 213 86 217 81 3 -2 -13 -11 -35 -20 -36 -14 -39 -19 -39 -50 1
-19 5 -35 10 -35 16 0 195 103 228 131 39 33 59 36 82 10z m-266 -88 c-4 -37
-38 -45 -38 -10 0 23 10 34 33 36 5 1 7 -11 5 -26z m-88 -33 c0 -22 -33 -60
-52 -60 -9 0 -8 -4 2 -11 11 -8 8 -9 -15 -5 -24 5 -27 4 -15 -5 12 -9 11 -10
-8 -6 -12 3 -20 1 -16 -4 6 -11 2 -11 -20 -3 -9 4 -16 18 -16 34 0 24 8 31 58
53 70 32 82 33 82 7z m28 -52 c4 -19 -27 -33 -41 -19 -7 7 -6 16 3 26 15 18
34 15 38 -7z m-178 -18 c0 -21 5 -30 17 -30 9 0 14 -3 10 -6 -3 -3 -15 -3 -26
1 -15 4 -21 15 -21 36 0 16 5 29 10 29 6 0 10 -13 10 -30z m-181 -35 c84 -35
117 -53 71 -40 -28 8 -168 73 -160 74 3 1 43 -15 89 -34z m361 13 c0 -16 -45
-48 -77 -54 -18 -3 -52 -3 -75 0 -24 4 -59 7 -78 8 l-35 0 30 14 c17 7 40 11
52 9 12 -3 43 3 68 13 46 18 115 24 115 10z"/>
<path d="M1458 2488 c18 -20 19 -25 6 -42 -21 -29 -18 -32 21 -28 19 2 35 8
35 12 0 4 -12 5 -26 2 -24 -4 -25 -3 -14 17 9 18 9 26 -2 38 -11 14 -10 16 15
11 15 -3 27 -1 27 3 0 5 -19 9 -42 9 l-41 0 21 -22z"/>
<path d="M1550 2465 c0 -39 3 -45 24 -51 27 -7 46 1 46 19 0 8 -3 8 -12 -1
-18 -18 -38 -14 -38 8 0 13 7 20 20 20 11 0 20 4 20 9 0 5 -9 7 -20 4 -14 -4
-20 0 -20 12 0 13 6 16 25 13 14 -3 25 -1 25 3 0 5 -16 9 -35 9 -35 0 -35 0
-35 -45z"/>
<path d="M1661 2472 c-11 -22 -21 -47 -20 -54 0 -7 4 -3 10 10 5 13 13 21 18
18 5 -3 7 4 3 16 -3 14 -1 19 6 14 6 -3 13 -20 17 -36 4 -17 11 -30 16 -30 12
0 12 -3 -10 54 l-19 50 -21 -42z"/>
<path d="M1741 2481 c13 -18 20 -38 16 -50 -3 -12 -1 -21 4 -21 5 0 9 7 9 16
0 9 9 29 21 45 11 16 16 29 11 29 -6 0 -12 -7 -16 -15 -8 -21 -24 -19 -31 5
-3 11 -13 20 -21 20 -11 0 -10 -7 7 -29z"/>
<path d="M1291 2459 c5 -22 6 -45 3 -51 -4 -7 -2 -8 5 -4 16 10 11 96 -5 96
-9 0 -10 -11 -3 -41z"/>
<path d="M1830 2490 c0 -5 7 -7 16 -3 15 5 16 0 12 -40 -3 -26 -2 -47 2 -47
15 0 16 89 2 95 -21 8 -32 6 -32 -5z"/>
<path d="M1178 2465 c-9 -19 -8 -29 6 -50 9 -14 25 -25 36 -25 11 0 27 11 36
25 24 37 6 75 -36 75 -23 0 -33 -6 -42 -25z m70 -23 c2 -22 -2 -34 -12 -38
-22 -8 -46 13 -46 41 0 28 9 37 35 33 15 -2 21 -12 23 -36z"/>
<path d="M1200 2441 c0 -5 9 -7 20 -4 11 3 20 7 20 9 0 2 -9 4 -20 4 -11 0
-20 -4 -20 -9z"/>
<path d="M1895 2480 c3 -5 8 -10 11 -10 2 0 4 5 4 10 0 6 -5 10 -11 10 -5 0
-7 -4 -4 -10z"/>
<path d="M1078 2469 c-10 -5 -18 -21 -18 -34 0 -13 8 -29 18 -34 16 -10 16
-10 0 -11 -10 0 -18 -4 -18 -10 0 -13 27 -13 35 1 4 5 -1 19 -11 30 -21 24 -9
54 22 54 16 0 19 -7 17 -42 -2 -45 2 -49 27 -33 13 8 12 10 -4 10 -16 0 -17 3
-8 12 16 16 15 33 -4 52 -18 18 -32 20 -56 5z"/>
<path d="M1924 2455 c-15 -23 -15 -27 0 -50 9 -14 25 -25 35 -25 23 0 51 31
51 56 0 47 -59 60 -86 19z m64 -21 c3 -33 -14 -49 -43 -38 -31 12 -14 77 19
72 15 -2 22 -11 24 -34z"/>
<path d="M2033 2464 c3 -3 0 -26 -8 -50 -11 -38 -11 -44 2 -44 8 0 12 4 9 8
-3 5 -2 22 3 38 l8 29 18 -38 c20 -43 30 -39 40 16 5 25 4 37 -4 37 -7 0 -10
-4 -7 -9 4 -5 2 -20 -3 -33 -8 -22 -9 -22 -27 15 -10 20 -22 37 -28 37 -5 0
-7 -3 -3 -6z"/>
<path d="M1012 2435 c16 -34 3 -43 -25 -17 -36 34 -45 28 -33 -23 6 -25 14
-45 18 -45 3 0 2 15 -3 32 -5 18 -9 34 -9 36 0 2 18 -11 41 -28 l40 -32 -7 26
c-3 14 -7 37 -8 51 0 14 -7 25 -13 25 -10 0 -10 -6 -1 -25z"/>
<path d="M869 2423 c-15 -4 -15 -9 -4 -48 8 -24 11 -46 7 -50 -3 -3 1 -3 9 0
14 5 15 11 4 43 -16 44 -11 55 21 49 13 -2 21 0 18 4 -5 9 -27 10 -55 2z"/>
<path d="M1549 2328 l24 -21 -22 -18 c-35 -28 -88 -34 -128 -15 -20 9 -38 14
-41 12 -9 -10 66 -36 100 -36 18 0 48 9 66 20 22 14 50 20 87 20 29 0 57 5 60
10 9 14 44 2 78 -26 31 -26 84 -32 119 -13 11 6 35 12 52 14 17 1 49 10 71 18
l40 16 -32 1 c-17 0 -35 -5 -38 -10 -4 -6 -45 -9 -101 -7 -52 2 -90 -1 -85 -6
11 -11 39 -12 76 -4 28 7 29 6 11 -8 -32 -24 -96 -14 -118 19 -10 16 12 37 33
31 10 -4 27 -2 36 4 15 8 10 10 -24 11 -23 0 -50 3 -60 6 -16 6 -15 5 2 -9 17
-13 18 -16 4 -22 -8 -3 -27 -1 -41 4 -20 8 -28 7 -32 -5 -6 -15 -36 -20 -36
-6 0 4 -17 7 -37 6 -22 -2 -28 0 -13 3 14 2 29 8 33 13 5 4 -3 5 -17 3 -14 -3
-40 0 -58 6 l-32 11 23 -22z"/>
<path d="M1317 2328 c6 -11 61 -10 67 0 2 4 -13 8 -34 7 -21 0 -36 -3 -33 -7z"/>
<path d="M1513 2313 c9 -2 15 -9 12 -14 -3 -5 1 -6 10 -2 13 5 14 7 3 14 -7 5
-20 8 -28 8 -11 -1 -10 -3 3 -6z"/>
<path d="M1287 2288 c5 -10 54 -10 70 0 6 4 -8 7 -32 7 -24 0 -41 -3 -38 -7z"/>
<path d="M1704 2280 c9 -32 39 -101 43 -97 2 3 -8 29 -22 58 -14 30 -23 47
-21 39z"/>
<path d="M1013 2238 c-41 -11 -42 -20 -2 -35 26 -10 35 -9 55 4 23 14 35 31
14 18 -5 -3 -10 -4 -10 0 0 3 10 10 23 15 22 10 22 10 -3 7 -26 -2 -52 -26
-44 -39 9 -14 -11 -9 -32 8 -14 11 -15 14 -3 11 9 -3 22 -1 30 3 21 14 7 18
-28 8z"/>
<path d="M1352 2204 c-6 -27 -18 -75 -25 -106 -8 -32 -10 -58 -6 -58 5 0 9 8
9 18 0 10 9 53 20 96 12 43 19 83 17 89 -1 5 -8 -12 -15 -39z"/>
<path d="M1632 2240 c0 -8 6 -31 13 -50 7 -19 13 -28 13 -20 0 8 -6 31 -13 50
-7 19 -13 28 -13 20z"/>
<path d="M1566 2205 c13 -83 23 -113 17 -50 -3 33 -9 67 -14 75 -6 10 -7 0 -3
-25z"/>
<path d="M1417 2223 c-3 -4 -8 -33 -11 -63 -4 -30 -9 -72 -12 -92 -4 -24 -2
-38 5 -38 7 0 11 22 11 53 1 28 5 72 10 97 8 44 7 60 -3 43z"/>
<path d="M1480 2154 c0 -43 5 -86 10 -94 6 -10 8 16 4 75 -3 50 -8 92 -10 94
-2 2 -4 -31 -4 -75z"/>
<path d="M1198 2193 c7 -3 16 -2 19 1 4 3 -2 6 -13 5 -11 0 -14 -3 -6 -6z"/>
<path d="M1190 2168 c0 -4 7 -8 15 -8 8 0 15 4 15 8 0 5 -7 9 -15 9 -8 0 -15
-4 -15 -9z"/>
<path d="M2080 2175 c0 -12 238 -251 243 -245 2 3 -52 61 -120 130 -67 69
-123 121 -123 115z"/>
<path d="M2225 2135 c60 -55 115 -98 115 -88 -1 4 -24 26 -52 48 -79 63 -107
80 -63 40z"/>
<path d="M1231 2145 c0 -11 -10 -27 -20 -35 -11 -7 -18 -17 -15 -21 2 -4 -3
-15 -12 -23 -11 -12 -12 -16 -2 -16 19 1 60 70 55 94 -4 20 -4 20 -6 1z"/>
<path d="M1095 2130 c3 -5 8 -10 11 -10 2 0 4 5 4 10 0 6 -5 10 -11 10 -5 0
-7 -4 -4 -10z"/>
<path d="M860 2110 c-6 -11 -8 -20 -6 -20 3 0 10 9 16 20 6 11 8 20 6 20 -3 0
-10 -9 -16 -20z"/>
<path d="M2106 2048 c13 -21 176 -208 181 -208 7 0 -4 14 -100 127 -72 85
-100 113 -81 81z"/>
<path d="M1148 2004 c4 -25 3 -26 -19 -20 -55 15 -71 15 -34 1 22 -9 46 -12
55 -9 8 4 18 6 23 6 12 -3 8 8 -12 29 -18 20 -18 20 -13 -7z"/>
<path d="M1940 2019 c12 -8 9 -10 -12 -6 -21 3 -28 0 -28 -12 0 -9 -3 -12 -8
-6 -12 16 -32 16 -32 0 0 -17 31 -20 46 -5 5 5 22 11 36 12 21 2 24 5 16 15
-6 7 -16 13 -22 13 -6 0 -4 -5 4 -11z"/>
<path d="M500 1943 c-41 -37 -77 -71 -79 -77 -4 -11 141 107 160 130 28 34
-12 8 -81 -53z"/>
<path d="M1925 1980 c-8 -13 5 -13 25 0 13 8 13 10 -2 10 -9 0 -20 -4 -23 -10z"/>
<path d="M1030 1977 c14 -15 80 -56 80 -49 0 5 -19 19 -42 32 -24 13 -41 20
-38 17z"/>
<path d="M1945 1960 c-3 -5 -2 -10 4 -10 5 0 13 5 16 10 3 6 2 10 -4 10 -5 0
-13 -4 -16 -10z"/>
<path d="M1926 1911 c-3 -5 1 -14 8 -20 10 -8 16 -9 21 -1 3 5 -1 10 -10 10
-9 0 -13 5 -10 10 3 6 4 10 1 10 -3 0 -7 -4 -10 -9z"/>
<path d="M2545 1867 c33 -30 61 -53 63 -52 5 4 -86 88 -107 99 -9 4 11 -17 44
-47z"/>
<path d="M2510 1736 c91 -92 124 -121 84 -73 -43 51 -121 130 -149 149 -16 12
13 -22 65 -76z"/>
<path d="M415 1690 c-33 -33 -55 -60 -49 -60 11 0 114 104 114 114 0 11 -5 6
-65 -54z"/>
<path d="M2424 1675 c55 -74 165 -199 179 -204 6 -2 -23 34 -64 81 -41 46 -93
106 -117 133 l-43 50 45 -60z"/>
<path d="M2370 1567 c0 -4 42 -62 93 -130 126 -169 139 -186 128 -161 -9 19
-189 264 -212 289 -5 5 -9 6 -9 2z"/>
<path d="M502 1344 c-41 -58 -72 -108 -69 -110 2 -2 15 13 29 33 14 21 49 71
77 111 28 39 48 72 44 72 -5 0 -41 -48 -81 -106z"/>
<path d="M652 1390 c0 -14 2 -19 5 -12 2 6 2 18 0 25 -3 6 -5 1 -5 -13z"/>
<path d="M2372 1380 c130 -213 214 -342 178 -270 -26 50 -163 265 -178 280
-14 14 -14 13 0 -10z"/>
<path d="M642 1325 c0 -16 2 -22 5 -12 2 9 2 23 0 30 -3 6 -5 -1 -5 -18z"/>
<path d="M518 1145 c-21 -35 -38 -70 -38 -77 0 -12 16 13 61 95 34 64 17 50
-23 -18z"/>
<path d="M2140 890 c34 -11 60 -11 35 0 -11 5 -29 8 -40 8 -16 0 -15 -2 5 -8z"/>
<path d="M2305 880 c-5 -9 -1 -10 13 -6 11 4 23 2 26 -3 4 -6 13 -8 21 -4 8 3
15 0 15 -6 0 -6 10 -11 23 -11 13 0 29 -6 36 -12 10 -9 12 -9 7 -1 -17 31
-128 64 -141 43z"/>
<path d="M580 801 c0 -8 70 -4 79 4 2 3 -14 5 -37 5 -23 0 -42 -4 -42 -9z"/>
<path d="M1700 2130 c-13 -8 -12 -10 3 -10 9 0 17 5 17 10 0 12 -1 12 -20 0z"/>
<path d="M1730 2123 c0 -7 11 -29 25 -49 28 -42 30 -54 13 -74 -11 -12 -10
-12 5 -1 24 19 21 39 -13 91 -16 25 -30 40 -30 33z"/>
<path d="M1610 1945 c0 -8 4 -15 10 -15 5 0 7 7 4 15 -4 8 -8 15 -10 15 -2 0
-4 -7 -4 -15z"/>
<path d="M1622 1892 c2 -9 9 -18 16 -18 6 -1 15 -3 20 -4 4 -1 10 -2 13 -2 9
1 29 -79 23 -89 -2 -4 19 -29 47 -56 28 -26 54 -57 59 -68 8 -19 9 -18 9 4 1
13 13 39 27 58 14 19 23 40 20 48 -6 18 15 35 40 31 10 -2 13 -1 7 1 -7 3 -13
8 -13 13 0 5 6 10 13 13 6 2 10 7 7 10 -10 11 -71 -54 -76 -81 -3 -15 -12 -36
-20 -46 -13 -19 -15 -19 -51 11 -36 29 -54 62 -68 127 -3 16 -14 30 -25 33
-11 3 -20 9 -20 13 0 4 -7 11 -16 14 -11 4 -14 1 -12 -12z"/>
<path d="M1501 1794 c0 -54 4 -108 9 -119 5 -12 7 26 3 95 -3 63 -7 117 -9
119 -2 2 -4 -40 -3 -95z"/>
<path d="M1365 1759 c-4 -44 -4 -83 -1 -86 3 -4 6 2 7 13 0 10 3 49 8 87 4 37
4 67 0 67 -4 0 -10 -36 -14 -81z"/>
<path d="M1657 1815 c-4 -8 -2 -17 3 -20 6 -4 10 3 10 14 0 25 -6 27 -13 6z"/>
<path d="M1721 1815 c0 -11 4 -29 9 -40 9 -20 9 -20 9 0 0 11 -4 29 -9 40 -9
20 -9 20 -9 0z"/>
<path d="M1657 1660 c10 -72 23 -103 17 -40 -4 30 -10 62 -15 70 -6 9 -6 -2
-2 -30z"/>
<path d="M2422 1988 c-13 -13 1 -38 21 -38 8 0 8 3 0 11 -6 6 -9 18 -6 25 6
17 1 18 -15 2z"/>
<path d="M2387 1943 c-4 -3 -7 -11 -7 -17 0 -6 5 -5 12 2 6 6 9 14 7 17 -3 3
-9 2 -12 -2z"/>
<path d="M2091 1795 c-1 -11 -4 -31 -6 -45 l-6 -25 11 25 c6 13 9 33 7 45 -4
19 -4 19 -6 0z"/>
<path d="M2001 1714 c-13 -30 -21 -57 -18 -60 2 -3 15 20 27 51 12 31 21 58
18 60 -2 3 -15 -20 -27 -51z"/>
<path d="M1902 1710 c0 -14 2 -19 5 -12 2 6 2 18 0 25 -3 6 -5 1 -5 -13z"/>
<path d="M2156 1665 c-4 -16 -13 -33 -19 -37 -9 -6 -9 -8 0 -8 16 0 35 36 31
58 -3 11 -7 7 -12 -13z"/>
<path d="M741 1534 c0 -11 3 -14 6 -6 3 7 2 16 -1 19 -3 4 -6 -2 -5 -13z"/>
<path d="M791 1534 c0 -11 3 -14 6 -6 3 7 2 16 -1 19 -3 4 -6 -2 -5 -13z"/>
<path d="M647 1695 c-9 -19 -15 -35 -12 -35 7 0 37 61 33 66 -3 2 -12 -12 -21
-31z"/>
<path d="M566 1635 c-9 -26 -7 -32 5 -12 6 10 9 21 6 23 -2 3 -7 -2 -11 -11z"/>
<path d="M2262 1350 c0 -14 2 -19 5 -12 2 6 2 18 0 25 -3 6 -5 1 -5 -13z"/>
<path d="M2301 1354 c0 -11 3 -14 6 -6 3 7 2 16 -1 19 -3 4 -6 -2 -5 -13z"/>
<path d="M682 1580 c0 -14 2 -19 5 -12 2 6 2 18 0 25 -3 6 -5 1 -5 -13z"/>
<path d="M1852 1565 c0 -16 2 -22 5 -12 2 9 2 23 0 30 -3 6 -5 -1 -5 -18z"/>
<path d="M1133 1532 c-7 -4 -9 -13 -4 -21 6 -10 10 -9 15 5 8 20 4 25 -11 16z"/>
<path d="M2121 1364 c1 -43 5 -92 9 -109 4 -16 5 17 3 75 -7 125 -13 145 -12
34z"/>
<path d="M1650 1485 c-21 -22 -22 -25 -5 -25 10 0 15 3 12 7 -4 3 0 15 10 25
25 28 10 22 -17 -7z"/>
<path d="M1698 1483 c-16 -8 -28 -19 -28 -24 0 -6 14 -1 30 11 17 12 30 23 30
26 0 5 2 6 -32 -13z"/>
<path d="M1722 1470 c-14 -12 -18 -21 -12 -25 6 -4 12 -5 13 -4 1 2 11 14 21
27 23 27 10 29 -22 2z"/>
<path d="M1761 1449 c-13 -11 -21 -22 -18 -25 3 -4 18 6 32 20 30 30 21 34
-14 5z"/>
<path d="M1790 1435 c-28 -30 -18 -33 16 -6 14 11 21 22 16 25 -5 3 -20 -6
-32 -19z"/>
<path d="M1553 1438 c3 -10 0 -19 -9 -22 -8 -3 -14 -11 -14 -17 0 -7 10 -3 23
9 29 27 47 29 23 3 -11 -12 -14 -21 -7 -26 6 -3 11 -1 11 6 0 6 10 20 22 30
21 19 21 19 0 19 -11 0 -28 3 -38 7 -13 5 -16 3 -11 -9z"/>
<path d="M1609 1403 c-13 -14 -19 -23 -13 -20 7 4 15 -1 18 -10 6 -14 10 -13
31 7 24 23 35 47 15 35 -5 -3 -10 -1 -10 4 0 18 -15 12 -41 -16z m41 -2 c0 -5
-7 -14 -15 -21 -12 -10 -15 -10 -15 2 0 8 3 18 7 21 9 10 23 9 23 -2z"/>
<path d="M1661 1377 l-25 -32 25 23 c14 12 31 22 38 22 7 0 9 5 6 10 -10 16
-18 11 -44 -23z"/>
<path d="M1693 1369 c-35 -22 -43 -32 -18 -22 10 3 15 1 13 -8 -5 -23 33 -23
39 0 3 12 9 21 14 21 5 0 9 5 9 11 0 8 -5 8 -15 -1 -8 -7 -15 -19 -15 -26 0
-8 -7 -14 -16 -14 -16 0 -12 12 14 43 19 22 14 21 -25 -4z"/>
<path d="M1120 1082 c0 -5 7 -15 15 -22 8 -7 15 -8 15 -2 0 5 -7 15 -15 22 -8
7 -15 8 -15 2z"/>
<path d="M978 1262 c-9 -15 -53 -67 -97 -115 -45 -49 -81 -94 -81 -99 0 -6 21
14 48 43 26 29 64 71 85 94 38 40 72 93 65 101 -2 2 -11 -9 -20 -24z"/>
<path d="M948 1168 c-37 -37 -65 -68 -62 -68 20 0 144 125 133 134 -2 1 -34
-28 -71 -66z"/>
<path d="M2192 1385 c0 -11 3 -29 8 -40 11 -25 11 1 0 35 -6 20 -8 21 -8 5z"/>
<path d="M2210 1299 c0 -13 5 -31 10 -39 7 -11 8 -5 4 20 -8 43 -14 51 -14 19z"/>
<path d="M2190 1061 c0 -5 5 -13 10 -16 6 -3 10 -2 10 4 0 5 -4 13 -10 16 -5
3 -10 2 -10 -4z"/>
<path d="M1930 896 c0 -2 18 -6 40 -8 22 -2 40 0 40 4 0 5 -18 8 -40 8 -22 0
-40 -2 -40 -4z"/>
<path d="M1470 2615 c-19 -11 -45 -13 -107 -8 -63 4 -87 2 -99 -8 -9 -8 -31
-14 -48 -15 -55 -3 -130 -24 -146 -40 -13 -14 -11 -14 18 1 19 9 40 14 48 11
8 -3 26 1 39 10 14 9 35 14 47 11 13 -3 32 1 42 9 22 16 112 19 121 4 7 -11
58 -2 95 17 34 18 111 16 138 -3 13 -9 31 -13 42 -9 11 3 25 3 31 -1 7 -4 42
-8 78 -9 36 0 75 -4 86 -9 11 -4 7 0 -10 10 -21 12 -55 17 -115 18 -47 1 -95
7 -107 14 -30 16 -122 15 -153 -3z"/>
<path d="M2162 2678 c-16 -16 -15 -33 2 -67 17 -31 7 -57 -18 -48 -9 4 -21 17
-26 29 -9 22 -9 22 -9 2 -2 -44 59 -59 83 -21 8 13 7 25 -7 49 -16 28 -16 33
-3 46 12 13 18 13 30 3 9 -8 13 -18 9 -25 -4 -7 -1 -7 7 1 11 10 11 15 0 28
-15 18 -51 20 -68 3z"/>
<path d="M2286 2626 c7 -19 -54 -106 -74 -106 -9 0 -6 -7 9 -19 22 -18 24 -18
28 -3 6 31 64 103 78 98 20 -8 16 -2 -17 22 -19 15 -28 17 -24 8z"/>
<path d="M664 2592 l-22 -18 22 -10 c30 -13 30 -36 0 -57 -24 -18 -26 -18 -45
-1 -14 13 -16 20 -8 31 19 22 2 15 -27 -12 -15 -14 -21 -24 -13 -21 16 6 85
-77 82 -100 -1 -12 6 -10 25 8 15 13 29 25 32 27 3 2 -2 2 -11 -2 -10 -3 -25
3 -38 17 l-21 22 31 23 c29 22 31 22 50 5 11 -10 17 -24 15 -31 -4 -9 2 -8 18
4 14 10 19 20 13 22 -18 5 -80 80 -80 97 0 8 -1 14 -1 14 -1 -1 -11 -9 -22
-18z"/>
<path d="M2350 2535 c-10 -12 -11 -24 -3 -49 13 -42 1 -66 -24 -50 -10 7 -17
22 -16 33 2 13 -1 20 -7 16 -28 -17 -1 -65 36 -65 33 0 47 24 39 69 -7 41 2
55 29 45 12 -4 15 -13 10 -28 -5 -17 -4 -19 7 -8 10 9 11 17 3 30 -15 23 -57
27 -74 7z"/>
<path d="M429 2364 c-19 -20 -20 -25 -7 -22 24 4 109 -63 102 -82 -3 -8 6 -4
20 9 30 28 32 33 11 29 -20 -4 -105 64 -100 80 6 18 1 15 -26 -14z"/>
<path d="M2523 2372 c-6 -4 -13 -28 -15 -52 -2 -37 -6 -45 -23 -45 -15 0 -20
7 -20 27 1 21 -2 24 -12 16 -15 -12 -2 -43 26 -57 13 -7 24 -6 40 6 19 13 21
21 16 53 -5 29 -3 39 10 44 23 8 35 -1 35 -27 0 -16 3 -18 12 -9 9 9 7 16 -7
32 -19 21 -41 25 -62 12z"/>
<path d="M362 2270 c-14 -18 -17 -27 -8 -24 21 8 117 -58 111 -76 -3 -8 4 -4
15 10 21 27 26 45 10 35 -16 -10 -112 55 -106 71 8 21 2 17 -22 -16z"/>
<path d="M2634 2283 c9 -16 -84 -84 -106 -79 -16 4 -16 3 0 -19 9 -13 18 -19
20 -15 6 16 101 72 112 65 17 -10 11 8 -11 35 -11 14 -18 20 -15 13z"/>
<path d="M295 2164 c-26 -40 -23 -83 9 -111 15 -12 33 -23 41 -23 30 0 65 24
80 57 16 33 16 35 -8 57 -22 20 -26 21 -31 7 -3 -9 -8 -21 -11 -27 -3 -6 4
-10 16 -10 27 1 33 -14 16 -38 -28 -38 -117 -9 -117 37 0 31 29 70 47 63 8 -3
11 -1 8 4 -11 18 -32 11 -50 -16z"/>
<path d="M2622 2173 c-7 -3 -19 -17 -27 -32 -15 -31 -10 -62 17 -100 14 -20
20 -22 32 -11 9 7 22 10 30 7 12 -5 11 0 -2 23 -16 27 -17 28 -24 10 -14 -39
-48 -18 -48 30 0 23 46 60 75 60 31 0 59 -34 53 -65 -5 -25 5 -34 17 -15 9 15
-21 77 -43 89 -21 11 -58 13 -80 4z"/>
<path d="M212 1978 c-12 -29 -17 -47 -11 -41 14 14 108 -19 124 -42 7 -10 12
-5 23 23 19 51 20 74 2 80 -12 4 -13 2 -4 -9 8 -9 9 -22 3 -36 -9 -25 -21 -28
-49 -13 -22 12 -16 40 9 41 12 0 12 2 -4 9 -30 13 -34 12 -28 -9 6 -24 -6 -31
-34 -20 -19 7 -21 12 -14 31 5 13 14 22 20 21 6 -2 11 2 11 7 0 6 -6 10 -13
10 -7 0 -23 -23 -35 -52z"/>
<path d="M2770 2022 c0 -16 -88 -55 -111 -49 -14 4 -15 1 -5 -25 6 -17 12 -24
14 -16 3 17 105 53 121 44 15 -10 13 4 -4 34 -8 14 -14 19 -15 12z"/>
<path d="M2820 1903 c0 -6 -28 -18 -61 -28 -51 -14 -63 -14 -71 -3 -5 8 -6 2
-2 -17 16 -70 21 -80 40 -83 17 -4 18 -3 2 10 -9 7 -18 22 -20 32 -2 16 8 23
54 36 42 13 59 15 68 6 9 -8 10 -3 4 19 -7 32 -14 45 -14 28z"/>
<path d="M298 1869 c14 -15 15 -38 3 -57 -10 -17 -100 3 -119 26 -6 9 -12 12
-12 6 0 -5 -3 -20 -7 -33 -4 -17 -3 -22 6 -17 19 12 121 -15 121 -32 0 -24 7
-11 23 45 16 52 15 53 -6 64 -18 9 -20 9 -9 -2z"/>
<path d="M2850 1753 c0 -15 -112 -34 -127 -21 -8 6 -10 4 -8 -9 2 -10 7 -35
10 -55 5 -31 10 -38 28 -37 15 1 17 3 5 6 -14 4 -35 50 -26 59 2 2 31 7 63 12
43 7 62 7 68 -2 4 -6 5 3 1 19 -7 32 -14 45 -14 28z"/>
<path d="M268 1729 c14 -15 16 -55 4 -63 -15 -9 -114 11 -122 24 -5 8 -9 2
-12 -16 l-4 -29 65 -2 c35 -1 67 -7 71 -13 4 -6 10 6 13 27 10 58 8 70 -10 78
-15 5 -16 4 -5 -6z"/>
<path d="M2870 1640 c0 -6 -32 -26 -72 -45 l-71 -34 29 -12 c16 -6 52 -19 79
-29 49 -17 51 -17 51 1 0 11 -4 15 -11 10 -5 -5 -32 -1 -59 8 l-48 17 41 19
c23 10 48 18 56 18 10 0 15 10 15 29 0 15 -2 28 -5 28 -3 0 -5 -5 -5 -10z"/>
<path d="M169 1593 c-18 -4 -49 -54 -49 -78 0 -25 55 -75 82 -75 34 1 67 30
74 67 5 27 1 37 -24 63 -29 28 -46 33 -83 23z m83 -40 c10 -9 18 -23 18 -31 0
-51 -94 -73 -124 -30 -20 29 -20 34 4 58 24 24 77 26 102 3z"/>
<path d="M2740 1478 c0 -20 4 -25 18 -21 10 2 34 0 53 -5 l34 -8 -59 -20 -60
-20 57 -33 c31 -18 57 -34 57 -36 0 -8 -96 9 -102 19 -5 6 -8 2 -8 -11 0 -12
-2 -27 -3 -35 -2 -7 -2 -10 0 -5 8 13 131 8 136 -5 3 -7 6 -2 6 12 1 20 -9 31
-50 54 l-51 28 51 18 c59 20 56 17 66 50 6 22 6 23 -6 8 -12 -15 -20 -15 -67
-5 -29 7 -57 19 -62 27 -7 12 -10 9 -10 -12z"/>
<path d="M248 1408 c16 -8 22 -20 22 -45 0 -29 -5 -36 -35 -48 -66 -28 -123
27 -79 77 19 20 19 20 -1 17 -15 -3 -21 -13 -23 -41 -5 -65 61 -109 118 -78
44 24 42 131 -3 129 l-22 0 23 -11z"/>
<path d="M304 1087 c9 -47 -5 -53 -54 -26 -22 12 -43 19 -47 16 -10 -11 7 -23
50 -37 43 -13 48 -36 12 -50 -27 -10 -34 -30 -12 -30 19 0 47 33 47 54 0 10 7
24 16 33 18 18 15 64 -5 71 -11 4 -12 -3 -7 -31z"/>
<path d="M2686 1113 c-12 -12 -6 -61 9 -73 8 -7 15 -21 15 -31 0 -23 37 -62
50 -54 16 10 11 21 -15 33 -42 19 -27 52 25 52 20 0 45 26 32 34 -4 2 -21 -4
-38 -15 -16 -10 -37 -19 -48 -19 -15 0 -17 5 -12 34 6 32 -3 53 -18 39z"/>
<path d="M256 1092 c-3 -6 -1 -14 5 -17 15 -10 25 3 12 16 -7 7 -13 7 -17 1z"/>
<path d="M2736 1093 c-11 -11 -6 -23 9 -23 8 0 15 4 15 9 0 13 -16 22 -24 14z"/>
<path d="M220 1020 c0 -5 7 -10 15 -10 8 0 15 5 15 10 0 6 -7 10 -15 10 -8 0
-15 -4 -15 -10z"/>
<path d="M323 1017 c5 -15 37 -22 37 -9 0 5 -9 12 -21 15 -13 3 -19 1 -16 -6z"/>
<path d="M2760 1015 c0 -9 5 -15 11 -13 6 2 11 8 11 13 0 5 -5 11 -11 13 -6 2
-11 -4 -11 -13z"/>
<path d="M2650 1005 c0 -8 4 -15 9 -15 5 0 14 7 21 15 10 13 9 15 -9 15 -12 0
-21 -6 -21 -15z"/>
<path d="M457 826 c-8 -21 -90 -74 -106 -68 -10 3 -8 -3 5 -21 10 -14 20 -20
22 -13 4 17 41 38 53 30 6 -3 9 -15 6 -25 -4 -16 -2 -17 14 -8 17 9 18 12 4
25 -20 20 -19 31 4 43 23 13 47 -10 37 -34 -6 -17 9 -21 19 -5 4 6 -7 28 -23
51 -21 28 -31 35 -35 25z"/>
<path d="M2528 815 c-20 -26 -24 -45 -7 -28 9 9 24 3 60 -20 26 -18 50 -37 51
-44 2 -6 11 0 21 14 13 17 15 23 5 21 -16 -4 -106 52 -110 68 -2 7 -11 2 -20
-11z"/>
<path d="M2476 742 c-11 -14 -14 -22 -8 -18 15 9 112 -65 107 -81 -7 -21 1
-15 20 13 9 15 13 24 8 21 -10 -7 -95 58 -103 78 -3 9 -11 5 -24 -13z"/>
<path d="M530 727 c0 -9 -14 -42 -30 -73 -17 -31 -30 -59 -28 -63 2 -3 38 6
81 20 65 22 75 28 62 39 -8 7 -15 8 -15 3 0 -9 -74 -43 -92 -43 -4 0 5 20 19
45 13 25 29 43 34 39 16 -9 10 6 -11 28 -17 18 -20 19 -20 5z"/>
<path d="M2435 690 c-10 -11 -13 -20 -7 -20 7 0 12 -11 12 -25 0 -20 -5 -25
-25 -25 -14 0 -25 5 -25 12 0 6 -9 2 -20 -10 -11 -12 -20 -23 -20 -24 0 -2 17
-2 38 0 50 4 62 -7 65 -55 2 -39 3 -40 20 -26 18 17 23 28 7 18 -10 -6 -26 42
-17 52 12 11 58 -7 51 -20 -4 -7 4 -1 19 13 l26 25 -52 5 -52 5 0 48 c0 26 0
47 -1 47 0 0 -9 -9 -19 -20z"/>
<path d="M635 610 c8 -13 -65 -96 -83 -94 -9 2 -8 -4 4 -17 20 -22 25 -24 19
-6 -2 6 11 30 30 51 l35 39 0 -81 c0 -45 2 -82 5 -82 2 0 25 22 51 50 26 28
51 47 58 43 6 -3 2 3 -8 15 -22 25 -27 27 -21 10 2 -7 -9 -29 -25 -48 l-30
-34 0 70 c0 41 -5 75 -12 82 -15 15 -32 16 -23 2z"/>
<path d="M2314 570 c-29 -12 -54 -49 -54 -80 0 -36 38 -70 79 -70 40 0 84 40
73 67 -6 16 -7 15 -10 -5 -2 -12 -14 -29 -27 -38 -21 -14 -26 -14 -53 0 -68
35 -49 132 21 110 19 -6 20 -5 8 10 -7 9 -14 16 -15 15 0 0 -11 -4 -22 -9z"/>
<path d="M760 447 c-14 -28 -32 -55 -42 -60 -15 -10 -12 -14 20 -34 67 -41
132 -20 134 44 1 37 -11 54 -55 81 l-32 18 -25 -49z m79 -3 c17 -21 18 -30 9
-48 -28 -54 -57 -68 -91 -43 -16 11 -15 16 15 65 18 28 36 52 40 52 3 0 16
-12 27 -26z"/>
<path d="M2175 468 c-51 -27 -60 -79 -20 -122 31 -34 67 -33 105 2 23 20 28
31 20 42 -8 12 -10 11 -10 -6 0 -49 -65 -61 -99 -18 -29 36 -27 70 5 91 21 13
30 14 45 5 15 -10 17 -9 13 3 -7 18 -31 19 -59 3z"/>
<path d="M907 351 c-29 -26 -58 -50 -66 -52 -8 -3 -4 -9 12 -16 20 -9 25 -9
22 0 -3 7 -1 18 4 26 15 23 61 -1 54 -28 -3 -12 -10 -21 -17 -21 -6 0 2 -7 18
-15 15 -8 29 -15 30 -15 4 0 4 170 0 170 -3 0 -29 -22 -57 -49z m35 -11 c-4
-26 -7 -28 -24 -19 -19 10 -19 12 -2 30 24 27 31 24 26 -11z"/>
<path d="M2015 375 c-40 -39 -27 -104 25 -125 38 -16 100 12 99 44 0 14 -2 16
-6 6 -8 -22 -34 -40 -58 -40 -47 0 -81 76 -50 110 19 21 65 28 65 10 0 -5 5
-10 11 -10 8 0 8 5 -1 15 -19 22 -58 18 -85 -10z"/>
<path d="M1016 362 c-12 -11 -5 -20 12 -16 9 2 23 1 30 -4 16 -11 -18 -113
-41 -121 -12 -5 -7 -9 18 -17 25 -8 33 -8 26 0 -5 7 0 33 13 67 22 57 37 65
64 31 11 -14 12 -14 12 1 0 9 -1 17 -3 17 -2 0 -31 11 -64 24 -34 13 -64 21
-67 18z"/>
<path d="M1841 315 c-21 -7 -28 -14 -20 -17 21 -8 51 -108 37 -125 -7 -9 -7
-13 0 -13 6 0 13 4 16 9 3 5 21 12 41 15 63 12 85 77 40 121 -27 27 -59 30
-114 10z m95 -20 c22 -33 21 -75 -2 -92 -31 -23 -43 -14 -60 43 -13 47 -14 58
-3 65 25 15 48 10 65 -16z"/>
<path d="M1186 248 c7 -35 14 -71 16 -82 2 -13 15 -1 51 48 26 36 47 68 47 71
0 3 -7 5 -16 5 -8 0 -13 -4 -10 -8 3 -5 -8 -28 -24 -52 -27 -41 -29 -42 -34
-19 -12 59 -13 79 -2 80 10 0 -20 17 -35 18 -3 1 0 -27 7 -61z"/>
<path d="M1764 292 c-6 -4 -17 -25 -23 -47 -7 -22 -15 -47 -17 -55 -3 -9 -15
2 -36 33 -24 37 -36 47 -57 47 -22 -1 -24 -2 -8 -11 21 -12 24 -107 5 -128
-11 -10 -7 -11 17 -5 36 8 45 14 22 14 -14 0 -17 10 -17 48 l1 47 33 -52 33
-53 18 63 18 62 13 -44 c9 -29 10 -48 4 -56 -7 -8 -1 -10 21 -7 17 3 27 7 21
11 -5 3 -15 32 -23 64 -11 50 -10 60 2 68 12 7 12 9 -1 9 -8 0 -20 -4 -26 -8z"/>
<path d="M1326 273 c12 -9 36 -62 54 -117 l12 -39 32 59 31 58 3 -48 c2 -33
-1 -52 -10 -57 -8 -6 0 -8 22 -8 19 0 29 3 23 6 -17 6 -17 115 -1 131 9 9 7
12 -8 12 -15 0 -29 -15 -48 -51 -16 -28 -31 -47 -34 -44 -4 4 -14 27 -23 52
-12 36 -21 47 -40 50 -13 2 -19 0 -13 -4z"/>
<path d="M1326 188 c-4 -23 -12 -46 -19 -50 -7 -4 1 -7 18 -7 17 0 25 3 19 5
-7 3 -10 21 -6 49 6 57 -3 59 -12 3z"/>
</g>
</svg>
