<?xml version="1.0" encoding="utf-8"?>
<!-- Generator: Adobe Illustrator 16.0.4, SVG Export Plug-In . SVG Version: 6.00 Build 0)  -->
<!DOCTYPE svg PUBLIC "-//W3C//DTD SVG 1.1//EN" "http://www.w3.org/Graphics/SVG/1.1/DTD/svg11.dtd">
<svg version="1.1" id="Layer_1" xmlns="http://www.w3.org/2000/svg" xmlns:xlink="http://www.w3.org/1999/xlink" x="0px" y="0px"
	 width="512px" height="186px" viewBox="40 90 432 136" enable-background="new 0 0 512 286" xml:space="default">
<path fill="#002F86" d="M106.61,141.305v-38.651H96.069v-3.106h34.191v3.106h-10.542v84.062h10.542v3.107H96.069v-3.107h10.542
	v-41.49H67.688v41.49h10.541v3.107H44.039v-3.107H54.58v-84.062H44.039v-3.106h34.191v3.106H67.688v38.651H106.61z"/>
<path fill="#002F86" d="M162.827,174.146c0,5.676-1.892,7.161-2.973,8.245c-3.244,2.836-6.081,3.918-10.406,3.918
	c-6.217,0-10.405-4.054-10.405-10.676c0-12.434,15.001-13.92,23.785-14.056V174.146z M180.937,180.497
	c-0.675,2.298-2.028,6.082-4.73,6.082c-2.837,0-2.837-2.163-2.837-6.218v-32.163c0-5.405,0-13.244-18.379-13.244
	c-16.083,0-21.623,8.108-21.623,12.975c0,3.782,2.027,6.486,5.676,6.486c3.377,0,5.541-2.299,5.541-5.677
	c0-4.46-4.054-5.135-4.054-6.216c0-3.919,9.595-4.866,12.567-4.866c4.731,0,9.731,1.893,9.731,8.245v12.837
	c-20.678,0-33.515,7.029-33.921,19.599c0,9.999,7.298,13.241,15.812,13.241c6.893,0,13.65-2.566,18.245-8.242
	c0.946,5,3.784,8.242,8.783,8.242c6.217,0,11.083-4.729,11.488-11.081H180.937z"/>
<path fill="#002F86" d="M272.562,186.715v3.107h-24.868v-3.107h7.568v-38.381c0-6.353-3.242-9.46-7.568-9.46
	c-8.377,0-15.135,12.027-15.135,19.459v28.382h7.162v3.107h-24.867v-3.107h7.163v-38.381c0-6.353-3.243-9.46-7.567-9.46
	c-8.379,0-15.136,12.027-15.136,22.298v25.543h7.569v3.107h-24.868v-3.107h6.758v-47.301h-6.758v-3.109h2.163
	c5,0,10.271-0.134,15.136-1.351v12.839h0.27c4.73-7.567,8.378-12.839,18.245-12.839c7.703,0,13.648,4.595,14.459,12.703h0.271
	c4.324-7.432,9.864-12.703,18.649-12.703c4.999,0,14.595,1.892,14.595,15.812v35.949H272.562z"/>
<path fill="#002F86" d="M271.071,189.822v-3.107h9.055v-47.301h-9.055v-3.109h4.461c5,0,10.271-0.134,15.135-1.351v51.761h7.976
	v3.107H271.071z M285.263,108.53c3.243,0,6.893,2.974,6.893,6.488c0,4.188-2.974,7.161-6.893,7.161s-6.486-3.242-6.486-7.161
	C278.776,111.504,281.883,108.53,285.263,108.53z"/>
<path fill="#002F86" d="M298.102,189.822v-3.107h10.405V99.818h-10.405v-3.109h5.811c5,0,10.272-0.271,15.137-1.217v91.223h10.404
	v3.107H298.102z"/>
<path fill="#002F86" d="M382.7,137.656c13.649,0,13.785,14.325,13.785,25.543c0,11.352-0.136,25.675-13.785,25.675
	c-13.648,0-13.784-14.323-13.784-25.675C368.916,151.981,369.052,137.656,382.7,137.656z M382.7,134.954
	c-14.19,0-26.083,11.894-26.083,28.245c0,16.353,11.893,28.379,26.083,28.379c14.191,0,26.083-12.026,26.083-28.379
	C408.783,146.848,396.892,134.954,382.7,134.954z"/>
<path fill="#002F86" d="M415.132,139.414H407.7v-3.109h2.838c2.568,0,5.136,0,7.567-0.27c2.568-0.136,5.134-0.54,7.568-1.081v14.327
	h0.271c3.785-8.517,9.054-14.327,18.92-14.327c4.866,0,16.083,1.081,16.083,13.514v38.247h7.297v3.107h-24.866v-3.107h7.028v-36.489
	c0-9.866-3.11-11.352-8.516-11.352c-9.189,0-16.217,12.567-16.217,22.703v25.138h7.298v3.107H407.7v-3.107h7.432V139.414z"/>
<path fill="#002F86" d="M325.386,136.044h7.974v-16.623c3.516,0,6.893,0,10.272-0.54v17.163h11.893v3.109h-11.893v41.354
	c0,2.434,0,6.082,5.134,6.082c3.514,0,5.406-2.434,7.569-4.998l2.163,1.484c-2.569,5.136-9.19,8.243-14.597,8.243
	c-9.729,0-10.811-5.27-10.811-11.757v-40.408h-7.705V136.044z"/>
</svg>
