<svg xmlns="http://www.w3.org/2000/svg" xmlns:xlink="http://www.w3.org/1999/xlink" version="1.1" x="0px" y="0px" viewBox="0 0 100 100" enable-background="new 0 0 100 100" xml:space="preserve"><path d="M64.062,31.871c-3.385,0-6.131-2.745-6.131-6.132c0-3.388,2.746-6.131,6.131-6.131c3.387,0,6.133,2.744,6.133,6.131  C70.195,29.126,67.449,31.871,64.062,31.871 M64.062,48.125c0,0,12.74-15.893,12.74-22.929c0-7.036-5.703-12.739-12.74-12.739  c-7.035,0-12.738,5.703-12.738,12.739C51.324,32.233,64.062,48.125,64.062,48.125 M34.422,78.792l-13.244-5.457V35.403l13.244,5.454  V78.792z M84.318,78.001V30.024l-4.793-2.552c-0.365,1.353-0.943,2.823-1.662,4.341l1.811,1.323v37.931L66.43,65.614V48.421  c-0.475,0.616-0.826,1.058-1,1.275L64.062,51.4l-1.365-1.704c-0.162-0.204-0.482-0.604-0.91-1.158v18.984l-22.723,9.359V38.948  l12-4.119c-0.756-1.451-1.414-2.881-1.91-4.236l-14.732,5.241l-17.889-7.364v47.977l17.889,7.368L66.43,70.634v0.002L84.318,78.001z  "></path></svg>
