<svg xmlns="http://www.w3.org/2000/svg" xmlns:xlink="http://www.w3.org/1999/xlink" version="1.1" x="0px" y="0px" viewBox="0 -5 64 57" style="enable-background:new 0 0 64 52;" xml:space="preserve"><g><rect x="12" y="8" width="24" height="8"></rect><rect x="12" y="20" width="12" height="8"></rect><rect x="12" y="31" width="12" height="2"></rect><rect x="12" y="35.5" width="8" height="1"></rect><rect x="12" y="39.5" width="12" height="1"></rect><rect x="28" y="27.5" width="28" height="1"></rect><rect x="28" y="23" width="12" height="2"></rect><rect x="28" y="31.5" width="28" height="1"></rect><rect x="28" y="35.5" width="20" height="1"></rect><rect x="28" y="40" width="28" height="4"></rect><path d="M63.707,19.293L44.292,0.285C44.105,0.102,43.854,0,43.592,0H5C4.448,0,4,0.448,4,1v2.586H1c-0.552,0-1,0.448-1,1V49   c0,1.657,1.343,3,3,3h2h58c0.552,0,1-0.448,1-1V20C64,19.735,63.895,19.48,63.707,19.293z M4,50H3c-0.551,0-1-0.449-1-1V5.586h2V50   z M45,3.778l15.126,14.808H45V3.778z M62,50H6V2h37v16.586c0,1.103,0.897,2,2,2h17V50z"></path></g></svg>
