<svg xmlns="http://www.w3.org/2000/svg" xmlns:xlink="http://www.w3.org/1999/xlink" version="1.1" x="0px" y="0px" viewBox="0 0 100 100" enable-background="new 0 0 100 100" xml:space="preserve"><g><g><path fill-rule="evenodd" clip-rule="evenodd" fill="#000000" d="M24.36,50c0-6.199,3.118-11.816,7.518-15.824l-5.64-5.276    c-5.312,5.079-9.397,13.433-9.397,21.1c0,7.527,4.255,16.047,9.397,21.1l5.64-5.273C27.632,61.832,24.36,56.078,24.36,50z     M22.834,25.173l-5.43-5.32C10.829,27.115,4.741,39.497,4.741,50c0,10.478,6.114,22.891,12.663,30.146l5.43-5.321    C17.065,68.655,11.977,59.029,11.977,50C11.977,40.986,17.081,31.341,22.834,25.173z M40.928,43.112l-5.265-5.165    C32.518,40.715,30.4,45.527,30.4,50c0,4.535,2.044,9.282,5.263,12.054l5.265-5.166c-2.038-1.714-3.51-4.046-3.51-6.888    C37.417,46.871,38.522,44.81,40.928,43.112z M85.596,19.854l-5.431,5.32C85.92,31.341,91.023,40.986,91.023,50    c0,9.029-5.089,18.655-10.858,24.825l5.431,5.321C92.145,72.891,98.259,60.478,98.259,50    C98.259,39.497,92.172,27.115,85.596,19.854z M76.761,28.9l-5.639,5.276C75.521,38.184,78.64,43.801,78.64,50    c0,6.078-3.271,11.832-7.518,15.826l5.639,5.273c5.142-5.053,9.397-13.572,9.397-21.1C86.158,42.333,82.073,33.979,76.761,28.9z     M51.5,42.48c-4.084,0-7.518,3.434-7.518,7.52c0,4.088,3.434,7.521,7.518,7.521c4.085,0,7.519-3.434,7.519-7.521    C59.019,45.914,55.585,42.48,51.5,42.48z M67.338,37.947l-5.266,5.165c2.406,1.698,3.51,3.759,3.51,6.888    c0,2.842-1.472,5.174-3.51,6.888l5.266,5.166C70.557,59.282,72.6,54.535,72.6,50C72.6,45.527,70.482,40.715,67.338,37.947z"></path></g></g></svg>
